<svg xmlns="http://www.w3.org/2000/svg" xmlns:xlink="http://www.w3.org/1999/xlink" viewBox="0 0 30 30" width="30" height="30" preserveAspectRatio="xMidYMid meet" style="width: 100%; height: 100%; transform: translate3d(0px, 0px, 0px); content-visibility: visible;"><defs><clipPath id="__lottie_element_108"><rect width="30" height="30" x="0" y="0"></rect></clipPath></defs><g clip-path="url(#__lottie_element_108)"><g transform="matrix(1,0,0,1,25.721954345703125,-12.80134391784668)" opacity="1" style="display: none;"><g opacity="1" transform="matrix(1,0,0,1,1.25,1.25)"><path fill="rgb(0,0,0)" fill-opacity="1" d=" M0,-1 C-0.5529999732971191,-1 -1,-0.5519999861717224 -1,0 C-1,0.5519999861717224 -0.5529999732971191,1 0,1 C0.5529999732971191,1 1,0.5519999861717224 1,0 C1,-0.5519999861717224 0.5529999732971191,-1 0,-1z"></path></g><g opacity="1" transform="matrix(1,0,0,1,1.25,5.25)"><path fill="rgb(0,0,0)" fill-opacity="1" d=" M0,-1 C-0.5529999732971191,-1 -1,-0.5519999861717224 -1,0 C-1,0.5519999861717224 -0.5529999732971191,1 0,1 C0.5529999732971191,1 1,0.5519999861717224 1,0 C1,-0.5519999861717224 0.5529999732971191,-1 0,-1z"></path></g><g opacity="1" transform="matrix(1,0,0,1,1.25,9.25)"><path fill="rgb(0,0,0)" fill-opacity="1" d=" M0,-1 C-0.5529999732971191,-1 -1,-0.5519999861717224 -1,0 C-1,0.5519999861717224 -0.5529999732971191,1 0,1 C0.5529999732971191,1 1,0.5519999861717224 1,0 C1,-0.5519999861717224 0.5529999732971191,-1 0,-1z"></path></g><g opacity="1" transform="matrix(1,0,0,1,1.25,13.25)"><path fill="rgb(0,0,0)" fill-opacity="1" d=" M0,-1 C-0.5529999732971191,-1 -1,-0.5529999732971191 -1,0 C-1,0.5519999861717224 -0.5529999732971191,1 0,1 C0.5529999732971191,1 1,0.5519999861717224 1,0 C1,-0.5529999732971191 0.5529999732971191,-1 0,-1z"></path></g></g><g transform="matrix(1,0,0,1,5.721954345703125,-12.80134391784668)" opacity="1" style="display: none;"><g opacity="1" transform="matrix(1,0,0,1,1.25,1.25)"><path fill="rgb(0,0,0)" fill-opacity="1" d=" M0,-1 C-0.5519999861717224,-1 -1,-0.5519999861717224 -1,0 C-1,0.5519999861717224 -0.5519999861717224,1 0,1 C0.5519999861717224,1 1,0.5519999861717224 1,0 C1,-0.5519999861717224 0.5519999861717224,-1 0,-1z"></path></g><g opacity="1" transform="matrix(1,0,0,1,1.25,5.25)"><path fill="rgb(0,0,0)" fill-opacity="1" d=" M0,-1 C-0.5519999861717224,-1 -1,-0.5519999861717224 -1,0 C-1,0.5519999861717224 -0.5519999861717224,1 0,1 C0.5519999861717224,1 1,0.5519999861717224 1,0 C1,-0.5519999861717224 0.5519999861717224,-1 0,-1z"></path></g><g opacity="1" transform="matrix(1,0,0,1,1.25,9.25)"><path fill="rgb(0,0,0)" fill-opacity="1" d=" M0,-1 C-0.5519999861717224,-1 -1,-0.5519999861717224 -1,0 C-1,0.5519999861717224 -0.5519999861717224,1 0,1 C0.5519999861717224,1 1,0.5519999861717224 1,0 C1,-0.5519999861717224 0.5519999861717224,-1 0,-1z"></path></g><g opacity="1" transform="matrix(1,0,0,1,1.25,13.25)"><path fill="rgb(0,0,0)" fill-opacity="1" d=" M0,-1 C-0.5519999861717224,-1 -1,-0.5529999732971191 -1,0 C-1,0.5519999861717224 -0.5519999861717224,1 0,1 C0.5519999861717224,1 1,0.5519999861717224 1,0 C1,-0.5529999732971191 0.5519999861717224,-1 0,-1z"></path></g></g><g transform="matrix(1,0,0,1,5.202764511108398,8.376883506774902)" opacity="1" style="display: block;"><g opacity="1" transform="matrix(1,0,0,1,0,0)"><path stroke-linecap="round" stroke-linejoin="round" fill-opacity="0" stroke="rgb(0,0,0)" stroke-opacity="1" stroke-width="2" d=" M21,1 C21,1 21,9 21,9"></path></g><g opacity="1" transform="matrix(1,0,0,1,0,0)"><path stroke-linecap="round" stroke-linejoin="round" fill-opacity="0" stroke="rgb(0,0,0)" stroke-opacity="1" stroke-width="2" d=" M1,1 C1,1 1,9 1,9"></path></g></g><g style="display: block;" transform="matrix(1,0,0,1,24.9527645111084,4.126883506774902)" opacity="1"><g opacity="1" transform="matrix(1,0,0,1,1.25,1.25)"><path fill="rgb(0,0,0)" fill-opacity="1" d=" M0,-1 C-0.5529999732971191,-1 -1,-0.5519999861717224 -1,0 C-1,0.5519999861717224 -0.5529999732971191,1 0,1 C0.5529999732971191,1 1,0.5519999861717224 1,0 C1,-0.5519999861717224 0.5529999732971191,-1 0,-1z"></path></g></g><g transform="matrix(1,0,0,1,22.37384796142578,4.103212356567383)" opacity="1" style="display: none;"><g opacity="1" transform="matrix(1,0,0,1,1.25,1.25)"><path fill="rgb(0,0,0)" fill-opacity="1" d=" M0,-1 C-0.5529999732971191,-1 -1,-0.5519999861717224 -1,0 C-1,0.5519999861717224 -0.5529999732971191,1 0,1 C0.5529999732971191,1 1,0.5519999861717224 1,0 C1,-0.5519999861717224 0.5529999732971191,-1 0,-1z"></path></g></g><g style="display: block;" transform="matrix(1,0,0,1,4.952764511108398,4.126883506774902)" opacity="1"><g opacity="1" transform="matrix(1,0,0,1,1.25,1.25)"><path fill="rgb(0,0,0)" fill-opacity="1" d=" M0,-1 C-0.5519999861717224,-1 -1,-0.5519999861717224 -1,0 C-1,0.5519999861717224 -0.5519999861717224,1 0,1 C0.5519999861717224,1 1,0.5519999861717224 1,0 C1,-0.5519999861717224 0.5519999861717224,-1 0,-1z"></path></g></g><g transform="matrix(1,0,0,1,2.3738489151000977,4.103212356567383)" opacity="1" style="display: none;"><g opacity="1" transform="matrix(1,0,0,1,1.25,1.25)"><path fill="rgb(0,0,0)" fill-opacity="1" d=" M0,-1 C-0.5519999861717224,-1 -1,-0.5519999861717224 -1,0 C-1,0.5519999861717224 -0.5519999861717224,1 0,1 C0.5519999861717224,1 1,0.5519999861717224 1,0 C1,-0.5519999861717224 0.5519999861717224,-1 0,-1z"></path></g></g><g transform="matrix(1,0,0,1,3.9527645111083984,3.1268835067749023)" opacity="1" style="display: block;"><g opacity="1" transform="matrix(1,0,0,1,0,0)"><path stroke-linecap="round" stroke-linejoin="round" fill-opacity="0" stroke="rgb(0,0,0)" stroke-opacity="1" stroke-width="2" d=" M16.25,20.25 C16.25,20.25 16.25,24.25 16.25,24.25"></path></g><g opacity="1" transform="matrix(1,0,0,1,22.25,18.25)"><path fill="rgb(0,0,0)" fill-opacity="1" d=" M0,-1 C-0.5529999732971191,-1 -1,-0.5529999732971191 -1,0 C-1,0.5519999861717224 -0.5529999732971191,1 0,1 C0.5529999732971191,1 1,0.5519999861717224 1,0 C1,-0.5529999732971191 0.5529999732971191,-1 0,-1z"></path></g><g opacity="1" transform="matrix(1,0,0,1,12.25,1.25)"><path fill="rgb(0,0,0)" fill-opacity="1" d=" M0,-1 C-0.5519999861717224,-1 -1,-0.5519999861717224 -1,0 C-1,0.5519999861717224 -0.5519999861717224,1 0,1 C0.5519999861717224,1 1,0.5519999861717224 1,0 C1,-0.5519999861717224 0.5519999861717224,-1 0,-1z"></path></g><g opacity="1" transform="matrix(1,0,0,1,12.25,21.25)"><path fill="rgb(0,0,0)" fill-opacity="1" d=" M0,-2 C-1.1039999723434448,-2 -2,-1.1039999723434448 -2,0 C-2,1.1039999723434448 -1.1039999723434448,2 0,2 C1.1039999723434448,2 2,1.1039999723434448 2,0 C2,-1.1039999723434448 1.1039999723434448,-2 0,-2z"></path></g><g opacity="1" transform="matrix(1,0,0,1,22.25,16.75)"><path fill="rgb(0,0,0)" fill-opacity="1" d=" M0,5.5 C0,5.5 0,5.5 0,5.5 C-1.1050000190734863,5.5 -2,4.604000091552734 -2,3.5 C-2,3.5 -2,-3.5 -2,-3.5 C-2,-4.605000019073486 -1.1050000190734863,-5.5 0,-5.5 C1.1050000190734863,-5.5 2,-4.605000019073486 2,-3.5 C2,-3.5 2,3.5 2,3.5 C2,4.604000091552734 1.1050000190734863,5.5 0,5.5z"></path></g><g opacity="1" transform="matrix(1,0,0,1,2.25,16.75)"><path fill="rgb(0,0,0)" fill-opacity="1" d=" M0,5.5 C0,5.5 0,5.5 0,5.5 C-1.1050000190734863,5.5 -2,4.604000091552734 -2,3.5 C-2,3.5 -2,-3.5 -2,-3.5 C-2,-4.605000019073486 -1.1050000190734863,-5.5 0,-5.5 C1.1050000190734863,-5.5 2,-4.605000019073486 2,-3.5 C2,-3.5 2,3.5 2,3.5 C2,4.604000091552734 1.1050000190734863,5.5 0,5.5z"></path></g><g opacity="1" transform="matrix(1,0,0,1,16.75,19.25)"><path fill="rgb(0,0,0)" fill-opacity="1" d=" M4.5,1 C4.5,1 -3.8980000019073486,3.9079999923706055 -3.8980000019073486,3.9079999923706055 C-3.8980000019073486,3.9079999923706055 -4.5,4 -4.5,4 C-4.5,4 -4.5,-4 -4.5,-4 C-4.5,-4 4.5,-4 4.5,-4 C4.5,-4 4.5,1 4.5,1z"></path></g><g opacity="1" transform="matrix(1,0,0,1,7.75,19.25)"><path fill="rgb(0,0,0)" fill-opacity="1" d=" M-4.5,1 C-4.5,1 3.8980000019073486,3.9079999923706055 3.8980000019073486,3.9079999923706055 C3.8980000019073486,3.9079999923706055 4.5,4 4.5,4 C4.5,4 4.5,-4 4.5,-4 C4.5,-4 -4.5,-4 -4.5,-4 C-4.5,-4 -4.5,1 -4.5,1z"></path></g><g opacity="1" transform="matrix(1,0,0,1,0,0)"><path stroke-linecap="round" stroke-linejoin="round" fill-opacity="0" stroke="rgb(0,0,0)" stroke-opacity="1" stroke-width="2" d=" M8.25,20.25 C8.25,20.25 8.25,24.25 8.25,24.25"></path></g><g opacity="1" transform="matrix(1,0,0,1,12.25,9.517999649047852)"><path fill="rgb(0,0,0)" fill-opacity="1" d=" M2,-1.2680000066757202 C2,-1.2680000066757202 0,-1.2680000066757202 0,-1.2680000066757202 C0,-1.2680000066757202 0,-8.267999649047852 0,-8.267999649047852 C0,-8.267999649047852 0.8859999775886536,-8.732000350952148 0.8859999775886536,-8.732000350952148 C1.3860000371932983,-7.98199987411499 2,-5.26800012588501 2,-4.26800012588501 C2,-4.26800012588501 2,-1.2680000066757202 2,-1.2680000066757202z M-2,-1.2680000066757202 C-2,-1.2680000066757202 0,-1.2680000066757202 0,-1.2680000066757202 C0,-1.2680000066757202 0,-8.267999649047852 0,-8.267999649047852 C0,-8.267999649047852 -0.8859999775886536,-8.732000350952148 -0.8859999775886536,-8.732000350952148 C-1.3860000371932983,-7.98199987411499 -2,-5.26800012588501 -2,-4.26800012588501 C-2,-4.26800012588501 -2,-1.2680000066757202 -2,-1.2680000066757202z M2,0.7319999933242798 C2,0.7319999933242798 -2,0.7319999933242798 -2,0.7319999933242798 C-3.1050000190734863,0.7319999933242798 -4,1.6269999742507935 -4,2.7320001125335693 C-4,2.7320001125335693 -4,8.732000350952148 -4,8.732000350952148 C-4,8.732000350952148 0.03099999949336052,12.074999809265137 0.03099999949336052,12.074999809265137 C0.03099999949336052,12.074999809265137 4,8.732000350952148 4,8.732000350952148 C4,8.732000350952148 4,2.7320001125335693 4,2.7320001125335693 C4,1.6269999742507935 3.1050000190734863,0.7319999933242798 2,0.7319999933242798z M-2,4.73199987411499 C-2,3.627000093460083 -1.1050000190734863,2.7320001125335693 0,2.7320001125335693 C1.1050000190734863,2.7320001125335693 2,3.627000093460083 2,4.73199987411499 C2,4.73199987411499 -2,4.73199987411499 -2,4.73199987411499z"></path></g></g></g></svg>