<?xml version="1.0" encoding="UTF-8" standalone="no"?>
<!-- Created with Inkscape (http://www.inkscape.org/) -->

<svg
   version="1.1"
   id="svg2"
   width="600"
   height="600"
   viewBox="0 0 600 600"
   sodipodi:docname="1529196_3568.eps"
   xmlns:inkscape="http://www.inkscape.org/namespaces/inkscape"
   xmlns:sodipodi="http://sodipodi.sourceforge.net/DTD/sodipodi-0.dtd"
   xmlns="http://www.w3.org/2000/svg"
   xmlns:svg="http://www.w3.org/2000/svg">
  <defs
     id="defs6">
    <radialGradient
       fx="0"
       fy="0"
       cx="0"
       cy="0"
       r="1"
       gradientUnits="userSpaceOnUse"
       gradientTransform="matrix(4765.97,0,0,-4765.97,2250,2250)"
       spreadMethod="pad"
       id="radialGradient18">
      <stop
         style="stop-opacity:1;stop-color:#3c3c3d"
         offset="0"
         id="stop12" />
      <stop
         style="stop-opacity:1;stop-color:#3c3c3d"
         offset="0.60039162"
         id="stop14" />
      <stop
         style="stop-opacity:1;stop-color:#100f0d"
         offset="1"
         id="stop16" />
    </radialGradient>
  </defs>
  <sodipodi:namedview
     id="namedview4"
     pagecolor="#ffffff"
     bordercolor="#000000"
     borderopacity="0.25"
     inkscape:showpageshadow="2"
     inkscape:pageopacity="0.0"
     inkscape:pagecheckerboard="0"
     inkscape:deskcolor="#d1d1d1" />
  <g
     id="g8"
     inkscape:groupmode="layer"
     inkscape:label="ink_ext_XXXXXX"
     transform="matrix(1.3333333,0,0,-1.3333333,0,600)">
    <g
       id="g10"
       transform="scale(0.1)">
      <path
         d="M 4500,0 H 0 V 4500 H 4500 V 0"
         style="fill:url(#radialGradient18);fill-opacity:1;fill-rule:nonzero;stroke:none"
         id="path20" />
      <path
         d="m 1350.7,1737.42 c 0,-42.87 -196.42,-77.62 -438.727,-77.62 -242.305,0 -438.731,34.75 -438.731,77.62 0,42.87 196.426,77.62 438.731,77.62 242.307,0 438.727,-34.75 438.727,-77.62"
         style="fill:#1d1c1c;fill-opacity:1;fill-rule:nonzero;stroke:none"
         id="path22" />
      <path
         d="m 2660.7,382.422 c 0,-42.871 -196.42,-77.621 -438.73,-77.621 -242.3,0 -438.73,34.75 -438.73,77.621 0,42.867 196.43,77.617 438.73,77.617 242.31,0 438.73,-34.75 438.73,-77.617"
         style="fill:#1d1c1c;fill-opacity:1;fill-rule:nonzero;stroke:none"
         id="path24" />
      <path
         d="m 2791.04,1747.48 c 0,-42.86 -196.42,-77.62 -438.73,-77.62 -242.3,0 -438.72,34.76 -438.72,77.62 0,42.87 196.42,77.63 438.72,77.63 242.31,0 438.73,-34.76 438.73,-77.63"
         style="fill:#1d1c1c;fill-opacity:1;fill-rule:nonzero;stroke:none"
         id="path26" />
      <path
         d="m 1355.7,412.422 c 0,-42.863 -196.42,-77.621 -438.727,-77.621 -242.305,0 -438.731,34.758 -438.731,77.621 0,42.867 196.426,77.617 438.731,77.617 242.307,0 438.727,-34.75 438.727,-77.617"
         style="fill:#1d1c1c;fill-opacity:1;fill-rule:nonzero;stroke:none"
         id="path28" />
      <path
         d="m 1370.7,3111.44 c 0,-42.88 -196.42,-77.62 -438.727,-77.62 -242.301,0 -438.727,34.74 -438.727,77.62 0,42.87 196.426,77.62 438.727,77.62 242.307,0 438.727,-34.75 438.727,-77.62"
         style="fill:#1d1c1c;fill-opacity:1;fill-rule:nonzero;stroke:none"
         id="path30" />
      <path
         d="m 4041.11,1760.07 c 0,-42.87 -196.42,-77.62 -438.73,-77.62 -242.3,0 -438.73,34.75 -438.73,77.62 0,42.87 196.43,77.63 438.73,77.63 242.31,0 438.73,-34.76 438.73,-77.63"
         style="fill:#1d1c1c;fill-opacity:1;fill-rule:nonzero;stroke:none"
         id="path32" />
      <path
         d="m 4018.7,412.422 c 0,-42.871 -196.42,-77.621 -438.72,-77.621 -242.3,0 -438.73,34.75 -438.73,77.621 0,42.867 196.43,77.617 438.73,77.617 242.3,0 438.72,-34.75 438.72,-77.617"
         style="fill:#1d1c1c;fill-opacity:1;fill-rule:nonzero;stroke:none"
         id="path34" />
      <path
         d="m 4067.56,907.859 c -11.25,2.161 -22.12,5.539 -32.81,10.039 -16.23,7.411 -63.11,33 -85.41,43.043 -2.07,11.989 -4.05,24 -6.1,35.989 -1.41,8.27 -3.01,16.51 -4.69,24.85 9.93,1.7 18.94,2.35 22.97,2.07 42.29,-2.82 99.67,-15.29 132.77,-48.28 37.13,-37.039 15.47,-77.082 -26.73,-67.711"
         style="fill:#53bf36;fill-opacity:1;fill-rule:nonzero;stroke:none"
         id="path36" />
      <path
         d="m 3211.5,1029.37 c -0.66,-2.71 -1.31,-5.42 -1.97,-8.05 -3.09,-14.07 -5.91,-28.14 -8.53,-42.199 -0.09,0 -0.09,0 -0.09,0 -13.78,-3.93 -73.23,-35.531 -91.79,-43.59 -10.41,-4.32 -21.02,-7.5 -32.07,-9.48 -41.54,-8.903 -65.08,27.758 -30.01,62.07 31.32,30.669 87.67,42.479 129.58,45.389 5.53,0.38 21.01,-0.76 34.88,-4.14"
         style="fill:#53bf36;fill-opacity:1;fill-rule:nonzero;stroke:none"
         id="path38" />
      <path
         d="m 4067.56,907.859 c -11.25,2.161 -22.12,5.539 -32.81,10.039 -16.23,7.411 -63.11,33 -85.41,43.043 -2.07,11.989 -4.05,24 -6.1,35.989 -1.41,8.27 -3.01,16.51 -4.69,24.85 9.93,1.7 18.94,2.35 22.97,2.07 42.29,-2.82 99.67,-15.29 132.77,-48.28 37.13,-37.039 15.47,-77.082 -26.73,-67.711 z m -292.17,19.5 c -33.75,-15.269 -77.63,-0.461 -91.5,32.743 -9.67,23.238 -7.6,55.498 21.84,76.218 53.62,29.26 89.54,-1.59 102.39,-17.43 25.88,-31.902 -0.09,-76.699 -32.73,-91.531 z m -336.6,5.442 c -33.85,-15.281 -77.74,-0.461 -91.61,32.73 -9.66,23.348 -7.6,55.599 21.84,76.229 53.64,29.26 89.55,-1.59 102.4,-17.44 25.87,-31.781 -0.09,-76.699 -32.63,-91.519 z m -229.26,88.519 c -3.09,-14.07 -5.91,-28.14 -8.53,-42.199 -0.09,0 -0.09,0 -0.09,0 -13.78,-3.93 -73.23,-35.531 -91.79,-43.59 -10.41,-4.32 -21.02,-7.5 -32.07,-9.48 -41.54,-8.903 -65.08,27.758 -30.01,62.07 31.32,30.669 87.67,42.479 129.58,45.389 5.53,0.38 21.01,-0.76 34.88,-4.14 -0.66,-2.71 -1.31,-5.42 -1.97,-8.05 z m 948.42,-74.07 c -7.77,37.879 -32.81,62.34 -62.26,83.54 -37.04,26.63 -112.51,48.29 -169.15,41.91 -19.97,72.57 -51.85,141.86 -102.38,186.97 -33.11,29.53 -88.05,56.44 -129.69,70.88 -44.34,15.28 -107.44,29.72 -227.74,0 -45.11,-11.15 -84.11,-38.72 -117.77,-70.51 -52.6,-49.6 -96.95,-114.86 -122.93,-184.16 -57.85,12.38 -143.92,-9.65 -183.02,-36.93 -28.32,-19.69 -51.95,-42.391 -57.76,-77.372 -4.41,-26.047 11.63,-60.187 36.47,-71.058 30.96,-13.598 60.49,-8.911 91.99,0.281 19.12,5.629 60.85,26.347 78.57,35.16 -9.47,-67.129 -13.69,-134.832 -13.03,-202.621 0.18,-25.231 6.38,-85.051 24.85,-86.91 25.41,-2.539 45.1,28.019 62.54,46.121 14.63,15.277 26.35,34.871 37.5,47.918 8.25,-18.949 62.35,-124.617 87.38,-126.68 30.58,-2.527 104.65,96.949 105.68,98.07 0,0 72.29,-105.769 100.33,-105.769 29.34,0 73.8,86.64 83.82,108.121 0.47,-0.379 1.03,-0.941 1.5,-1.32 11.16,-10.403 71.17,-95.821 96.58,-94.789 22.5,0.937 59.82,90.296 70.88,108.949 19.97,-26.621 66.39,-94.039 103.52,-92.539 9.27,0.269 21.37,31.687 22.31,63.847 1.59,58.129 -2.16,98.551 -7.97,145.43 -2.9,23.16 -6.28,46.422 -9.75,69.57 20.63,-10.5 56.64,-28.687 74.08,-34.027 32.25,-9.762 62.17,-14.633 92.54,0.379 24.47,11.988 38.73,49.219 32.91,77.539"
         style="fill:#38953a;fill-opacity:1;fill-rule:nonzero;stroke:none"
         id="path40" />
      <path
         d="m 3935.51,678.219 c -16.1,4.863 -58.97,59.609 -72.17,73.73 -23.83,25.481 -25.14,19.52 -32.58,7.992 -9.54,-14.769 -49.88,-107.871 -54.23,-108.589 -5.91,-1 -95.16,111.5 -104.97,102.777 -16.88,-15.008 -64.94,-110.867 -74.08,-112.231 -9.81,-1.449 -87.83,104.602 -102.43,104.602 -9.82,0 -94.42,-92.828 -99.87,-95.891 -7.88,2.852 -59.22,92.75 -71.82,114.59 -8.09,14 -13.54,23.801 -34.24,0.91 -18.69,-20.64 -30.51,-34.859 -71.7,-76.129 -6.39,-6.398 -4.08,86.309 -4.02,107.211 0.13,41.09 3.81,161.778 38.67,251.329 27.58,70.76 71.44,143.1 127.71,193.92 57.03,51.49 119.63,72.83 206.8,68.48 138.38,-6.55 179.78,-45.76 207.01,-68.65 69.98,-58.77 90.49,-134.63 107.87,-215.74 18.65,-86.96 27.95,-172.139 36.89,-260.589 0.56,-5.429 3.32,-89.57 -2.84,-87.722"
         style="fill:#53bf36;fill-opacity:1;fill-rule:nonzero;stroke:none"
         id="path42" />
      <path
         d="m 3775.44,927.379 c -33.82,-15.348 -77.67,-0.527 -91.53,32.68 -9.71,23.32 -7.62,55.581 21.79,76.281 53.65,29.2 89.57,-1.61 102.42,-17.43 25.84,-31.859 -0.08,-76.762 -32.68,-91.531 z m 62.45,96.311 c -20.44,40.89 -62.45,61.68 -113.18,51.53 -30.99,-7.28 -78.93,-32.35 -74.22,-104.298 3.74,-56.801 71.3,-93.582 124.56,-77.231 54.91,16.911 89.77,76.09 62.84,129.999"
         style="fill:#38953a;fill-opacity:1;fill-rule:nonzero;stroke:none"
         id="path44" />
      <path
         d="m 3776.22,927.379 c -33.82,-15.348 -77.67,-0.527 -91.52,32.68 -9.72,23.32 -7.63,55.581 21.78,76.281 53.66,29.2 89.57,-1.61 102.43,-17.43 25.85,-31.859 -0.08,-76.762 -32.69,-91.531"
         style="fill:#ffffff;fill-opacity:1;fill-rule:nonzero;stroke:none"
         id="path46" />
      <path
         d="m 3438.75,932.828 c -33.82,-15.348 -77.66,-0.527 -91.52,32.684 -9.72,23.32 -7.64,55.568 21.79,76.278 53.66,29.2 89.56,-1.61 102.42,-17.44 25.84,-31.862 -0.09,-76.748 -32.69,-91.522 z m 62.46,96.312 c -20.45,40.88 -62.46,61.68 -113.18,51.52 -31,-7.28 -78.94,-32.34 -74.23,-104.289 3.75,-56.789 71.3,-93.582 124.56,-77.23 54.92,16.898 89.78,76.089 62.85,129.999"
         style="fill:#38953a;fill-opacity:1;fill-rule:nonzero;stroke:none"
         id="path48" />
      <path
         d="m 3438.91,932.828 c -33.82,-15.348 -77.67,-0.527 -91.53,32.684 -9.72,23.32 -7.62,55.568 21.8,76.278 53.65,29.2 89.56,-1.61 102.42,-17.44 25.84,-31.862 -0.1,-76.748 -32.69,-91.522"
         style="fill:#ffffff;fill-opacity:1;fill-rule:nonzero;stroke:none"
         id="path50" />
      <path
         d="m 3433.3,1031.98 c -24.09,14.15 -65.7,-4.91 -68.24,-36.058 -1.52,-18.672 11.23,-36.762 28.01,-41.801 16.84,-8.672 38.98,-5.019 53.18,9.848 9.39,9.84 25.86,45.211 -12.95,68.011"
         style="fill:#100f0d;fill-opacity:1;fill-rule:nonzero;stroke:none"
         id="path52" />
      <path
         d="m 3768.91,1027.62 c -24.11,14.16 -65.73,-4.9 -68.26,-36.069 -1.51,-18.66 11.22,-36.762 28,-41.789 16.86,-8.672 38.99,-5.012 53.19,9.847 9.41,9.84 25.86,45.211 -12.93,68.011"
         style="fill:#100f0d;fill-opacity:1;fill-rule:nonzero;stroke:none"
         id="path54" />
      <path
         d="m 3645.34,870.371 c -2.62,-17.051 -42.1,1.168 -50.21,2.828 -11.24,2.27 -22.32,0.321 -33.38,-1.867 -13.08,-2.582 -33.57,-10.371 -40.84,3.008 -1.4,2.48 -3.53,13.551 11.11,26.359 11.81,7.942 29.6,13.563 44.85,13.77 30.16,0.351 72.52,-17.598 68.47,-44.098 z m -29.77,59.18 c -31.64,10.988 -67.86,10.16 -104.95,-18.301 -19.18,-19.781 -17.56,-34.031 -17.44,-37.57 0.92,-18.91 23.5,-26.84 39.18,-29.25 9.98,-1.52 19.18,-0.52 29.05,1.308 16.94,3.153 29.66,3.582 46.36,-1.519 16.52,-5.059 43.5,-8.071 54.35,7.929 25.46,37.622 -16.73,67.071 -46.55,77.403"
         style="fill:#38953a;fill-opacity:1;fill-rule:nonzero;stroke:none"
         id="path56" />
      <path
         d="m 3645.34,870.371 c -2.62,-17.051 -42.1,1.168 -50.21,2.828 -11.24,2.27 -22.32,0.321 -33.38,-1.867 -13.08,-2.582 -33.57,-10.371 -40.84,3.008 -1.4,2.48 -3.53,13.551 11.11,26.359 11.81,7.942 29.6,13.563 44.85,13.77 30.16,0.351 72.52,-17.598 68.47,-44.098"
         style="fill:#2e662d;fill-opacity:1;fill-rule:nonzero;stroke:none"
         id="path58" />
      <path
         d="m 3841.93,1165.25 c -14.59,19.24 -25.17,39.85 -42.48,57.03 -26.97,26.82 -69.31,65.57 -111.29,56.63 -28.06,-5.98 -39.59,-37.34 -17.16,-57.81 12.2,-11.15 27.63,-17.11 40.75,-26.98 15.52,-11.66 30.03,-26.99 41.56,-42.55 12.01,-16.2 21.71,-34.32 32.71,-51.16 14.39,-22.03 45.41,-27.11 62.5,-5.88 15.11,18.77 6.91,52.91 -6.59,70.72"
         style="fill:#ffffff;fill-opacity:1;fill-rule:nonzero;stroke:none"
         id="path60" />
      <path
         d="m 3268.35,813.238 c -1.89,12.953 -11.89,43.692 -31.63,34.66 -17.17,-7.859 -20.16,-27.406 -21.12,-44.328 -0.6,-10.429 0.51,-18.41 3.7,-28.289 3.55,-11.031 19.51,-20.34 30.72,-14.781 20.18,9.992 21.23,32.719 18.33,52.738"
         style="fill:#ffffff;fill-opacity:1;fill-rule:nonzero;stroke:none"
         id="path62" />
      <path
         d="m 2467.19,810.109 c 7.44,-11.48 14.73,-23.097 22.36,-34.488 16.96,-25.293 35.47,-49.512 53.73,-73.812 14.41,-19.2 23.66,-40.067 17.71,-64.758 -5.35,-22.27 -19.61,-42.379 -38.72,-53.731 -45.18,-26.859 -91.1,7.711 -124.11,39.239 -18.91,18.031 -33.33,38.91 -46.34,61.851 -3.63,6.379 -7.44,13.27 -10.97,20.41 -6,-30.851 -12.74,-66.558 -27.84,-93.84 -16.93,-30.488 -47.65,-53.46 -90.97,-45.55 -40.72,7.429 -71.12,43.968 -84.18,83.152 -3.16,9.527 -6.09,20.457 -8.32,31.988 -12.88,-20.968 -27.24,-40.172 -45.64,-56.859 -34.73,-31.5 -82.97,-66.09 -130.48,-39.231 -20.08,11.34 -35,31.481 -40.68,53.739 -6.28,24.679 3.49,45.551 18.65,64.75 19.2,24.312 38.62,48.519 56.47,73.812 7.99,11.391 15.66,23 23.52,34.489 -55.4,5.171 -102.41,45 -120.67,100.039 -24.08,72.601 7.72,143.061 41.89,206.291 35.36,65.45 77.61,128.8 135.21,176.95 28.72,23.98 62.56,51.55 96.45,68.28 62.01,30.65 99.01,28.32 152.23,1.17 32.21,-16.46 69.64,-46.62 96.97,-70.6 54.8,-48.17 95.01,-111.53 128.66,-176.97 32.49,-63.21 62.75,-133.68 39.83,-206.289 -17.38,-55.032 -62.1,-94.871 -114.76,-100.032"
         style="fill:#d28c18;fill-opacity:1;fill-rule:nonzero;stroke:none"
         id="path64" />
      <path
         d="m 2433.32,852.52 c -20.38,0.171 -26.72,-9.04 -21.28,-24.649 14.7,-42.211 40.73,-81 66.94,-116.191 15.35,-20.61 64.31,-68.688 19.89,-88.039 -31.01,-13.5 -72.76,31.371 -90.94,53.629 -12.73,15.582 -41.47,55.73 -57.4,89.371 -6.55,13.82 -35.2,23.3 -39.69,-10.68 -5.5,-41.621 -14.35,-154.859 -80.34,-148.461 -36.02,3.48 -60.43,37.18 -66.51,149.281 -0.89,25.02 -21.73,24.328 -30.04,11.02 -23.14,-37.129 -46.96,-73.781 -60.33,-89.36 -19.11,-22.269 -62.98,-67.132 -95.57,-53.64 -46.68,19.34 4.77,67.449 20.89,88.051 27.55,35.199 54.92,73.98 70.37,116.168 5.71,15.621 -0.34,26 -22.37,24.66 -82.56,-5.629 -110.45,44.332 -118.01,79.672 -14.11,65.89 21.77,129.528 49.68,180.338 55.73,101.47 172.86,221.25 262.72,222.13 84.46,-0.88 202.89,-119.74 257,-223.3 26.55,-50.8 59.87,-127.348 47.27,-180.329 -6.12,-25.722 -26.91,-88.793 -112.28,-79.671"
         style="fill:#fbc408;fill-opacity:1;fill-rule:nonzero;stroke:none"
         id="path66" />
      <path
         d="m 2421.83,919.262 c -26.31,-29.391 -79.35,-37.102 -112.91,-7.211 -30.82,27.469 -38.73,101.839 -31.65,118.439 4.45,10.45 48.33,23.47 67.15,30.49 29.2,10.87 52.21,20.64 87.77,31.93 21.24,6.74 21.29,-6.64 22.4,-19.98 4.28,-51.93 3.68,-113.051 -32.76,-153.668"
         style="fill:#d28c18;fill-opacity:1;fill-rule:nonzero;stroke:none"
         id="path68" />
      <path
         d="m 2328.56,939.84 c 28.23,-29.391 65.19,-9.469 79.72,21.41 13.1,27.82 17.32,57.62 13.09,93.24 -34.8,-12.38 -81.64,-29.81 -109.53,-41.43 -5.58,-2.33 -1.12,-54.619 16.72,-73.22"
         style="fill:#6947a7;fill-opacity:1;fill-rule:nonzero;stroke:none"
         id="path70" />
      <path
         d="m 2059.4,920.801 c 28.04,-29.371 84.54,-37.09 120.29,-7.211 32.84,27.469 41.25,101.85 33.73,118.44 -4.75,10.46 -51.51,23.48 -71.56,30.5 -31.1,10.87 -55.61,20.63 -93.49,31.92 -22.64,6.75 -22.69,-6.64 -23.87,-19.98 -4.56,-51.92 -3.91,-113.04 34.9,-153.669"
         style="fill:#d28c18;fill-opacity:1;fill-rule:nonzero;stroke:none"
         id="path72" />
      <path
         d="m 2158.75,941.391 c -30.06,-29.403 -69.43,-9.481 -84.91,21.398 -13.96,27.832 -18.47,57.621 -13.95,93.241 37.07,-12.38 86.97,-29.8 116.69,-41.42 5.95,-2.33 1.19,-54.63 -17.83,-73.219"
         style="fill:#6947a7;fill-opacity:1;fill-rule:nonzero;stroke:none"
         id="path74" />
      <path
         d="m 2397.07,1234.29 c -13.61,15.92 -45.64,45.9 -90.07,56.9 -23.57,5.83 -45.89,-9.37 -42.92,-36.11 2.98,-26.9 26.6,-32.52 66.03,-72.4 24.42,-24.71 40.81,-73.64 82.6,-70.32 10.6,0.84 22.96,6.43 27.27,17.05 16.38,40.45 -18.25,76.04 -42.91,104.88"
         style="fill:#ffffff;fill-opacity:1;fill-rule:nonzero;stroke:none"
         id="path76" />
      <path
         d="m 1952.42,957.801 c -19.04,-11.981 -11.81,-37.492 -0.17,-56.84 11.43,-19.012 32.4,-33.402 54.91,-27.449 11.27,2.968 16.06,15.488 15.94,25.808 -0.18,17.5 -46.85,73.489 -70.68,58.481"
         style="fill:#ffffff;fill-opacity:1;fill-rule:nonzero;stroke:none"
         id="path78" />
      <path
         d="m 2481.63,684.301 c -6.21,20.949 -18.26,37.597 -30.2,55.597 -10.39,15.684 -20.49,29.922 -40.8,29.942 -10.61,0.019 -16.11,-12.418 -13.31,-21.539 5.86,-19.051 27.24,-61.242 54.77,-85.602 15.31,-13.558 34.43,5.129 29.54,21.602"
         style="fill:#ffffff;fill-opacity:1;fill-rule:nonzero;stroke:none"
         id="path80" />
      <path
         d="m 1551.89,2149.76 c -21.29,-7.77 -43.64,-7.16 -65.91,-6.47 -6.69,0.25 -13.71,0.09 -20.81,-0.04 9.1,-16.5 15.19,-35.47 18.73,-49.78 12.58,-50.58 -8.05,-112.07 -42.87,-148.7 -16.68,-17.58 -42.86,-21.11 -64.18,-12.04 -21.95,9.24 -32.41,33.29 -36.45,55.41 -4.8,26.08 1.9,50.38 -15.01,73.16 -12.52,16.79 -28.59,28.58 -49.09,29.29 -26.41,-40.22 -55.92,-57.5 -96.12,-68.48 -11.67,-3.2 -51.98,-6.55 -59.84,-6.55 -10.73,0 -7.7,2.6 -8.22,-6.56 -1.3,-21.42 -12.45,-57.26 -30.27,-69.02 -42.29,-27.89 -77.57,11.11 -89.565,53.78 -4.14,14.74 -8.789,17.43 -23.191,18.41 -12.973,0.84 -106.074,0.84 -119.281,0 -14.598,-0.98 -19.344,-3.67 -23.563,-18.41 -12.187,-42.67 -48.02,-81.67 -91.016,-53.78 -18.125,11.76 -29.472,47.6 -30.769,69.02 -0.559,9.16 2.555,6.56 -8.371,6.56 -7.989,0 -48.899,3.35 -60.801,6.55 -40.859,10.98 -70.879,28.26 -97.703,68.48 -20.82,-0.71 -37.141,-12.5 -49.875,-29.29 -17.207,-22.78 -10.41,-47.08 -15.254,-73.16 -4.133,-22.12 -14.773,-46.17 -37.039,-55.41 -21.711,-9.07 -48.293,-5.54 -65.266,12.04 -35.371,36.63 -56.386,98.12 -43.593,148.7 3.613,14.31 9.804,33.28 19.101,49.78 -7.258,0.13 -14.414,0.29 -21.199,0.04 -22.641,-0.69 -45.324,-1.3 -66.985,6.47 -33.75,12.08 -65.769,46.01 -58.054,84.87 8.133,41.23 44.715,62.2 85.164,62.2 12.734,0 27.051,-0.52 41.777,-1.86 -19.98,21.34 -35.644,45.5 -46.57,72.97 -20.637,51.75 -40.488,125.56 -8.137,176.78 13.34,21.15 37.832,36.35 63.313,27.57 27.656,-9.54 41.277,-37.84 48.945,-64.29 8.926,-30.77 10.828,-55.55 42.391,-85.9 15.429,-14.78 40.39,-25.61 62.988,-31.33 13.75,77.63 77.766,152.6 139.68,195.83 39.136,27.29 83.203,43.37 130.054,51.6 46.203,8.09 253.109,8.27 299.409,0 46.11,-8.23 89.48,-24.31 127.96,-51.6 60.89,-43.23 123.87,-118.2 137.45,-195.83 22.21,5.72 46.76,16.55 61.91,31.33 31.1,30.35 32.97,55.13 41.74,85.9 7.54,26.45 20.98,54.75 48.16,64.29 25.05,8.78 49.14,-6.42 62.29,-27.57 31.84,-51.22 12.26,-125.03 -8,-176.78 -10.73,-27.47 -26.17,-51.63 -45.83,-72.97 14.45,1.34 28.55,1.86 41.09,1.86 39.79,0 75.77,-20.97 83.81,-62.2 7.58,-38.86 -23.94,-72.79 -57.13,-84.87"
         style="fill:#9d1d20;fill-opacity:1;fill-rule:nonzero;stroke:none"
         id="path82" />
      <path
         d="m 1572.41,2221.89 c -11.32,-71.94 -122.41,-30.9 -167.7,-44.15 -12.7,-3.7 -12.16,-23.94 0.76,-29.62 39.95,-17.56 45.97,-61.48 41.21,-96 -2.98,-21.53 -9.68,-44.48 -22.21,-62.47 -5.29,-7.6 -13.03,-20.15 -23.6,-20.51 -13.25,-0.45 -18.73,15.15 -19.98,25.72 -4.47,38.05 -7.49,72.94 -32.25,100.16 -16.85,18.54 -80.43,47.16 -91.5,25.58 -6.48,-8.55 -35.8,-71.39 -133,-65.62 -16.11,0.95 -38.14,-1 -44.72,-19.94 -7.19,-20.68 1.85,-53.01 -19.29,-67.17 -23.3,-15.61 -35.75,47.25 -44.31,57.71 -10.99,13.42 -26.347,19.9 -43.425,20.75 -19.622,0.99 -105.95,0.99 -125.903,0 -17.371,-0.85 -32.984,-7.33 -44.148,-20.75 -8.699,-10.46 -21.348,-73.32 -45.031,-57.71 -21.493,14.16 -12.293,46.49 -19.61,67.17 -6.687,18.94 -29.09,20.89 -45.457,19.94 -98.789,-5.77 -128.594,57.07 -135.176,65.62 -11.25,21.58 -75.871,-7.04 -93.007,-25.58 -25.157,-27.22 -28.223,-62.11 -32.774,-100.16 -1.269,-10.57 -6.836,-26.17 -20.312,-25.72 -10.723,0.36 -18.606,12.91 -23.985,20.51 -12.734,17.99 -19.551,40.94 -22.566,62.47 -4.856,34.52 1.265,78.44 41.883,96 13.125,5.68 13.671,25.92 0.769,29.62 -46.023,13.25 -158.953,-27.79 -170.457,44.15 -11.199,70.04 117.461,27.2 178.848,25.68 14.336,0.46 16.484,19.51 7.617,27.63 -9.141,8.35 -20.137,11.97 -31.172,17.39 -13.074,6.44 -24.59,14.92 -35.461,24.53 -23.223,20.55 -36.844,50.03 -47.5,78.44 -9.715,25.89 -15.137,52.91 -16.336,80.51 -0.691,15.94 12.031,85.38 40.02,53.35 15.625,-17.9 17.468,-49.32 23.32,-71.49 6.445,-24.42 21.66,-45.59 38.984,-63.36 19.356,-19.86 69.532,-49.03 107.872,-44.38 7.121,0.06 15.507,10.03 18.007,19.32 20.418,76.04 67.539,139.66 130.782,186.41 35.019,25.88 77.148,38.41 119.519,45.71 43.352,7.46 238.029,6.54 275.419,0 41.69,-7.3 83.14,-19.83 117.58,-45.71 62.24,-46.75 108.59,-110.37 128.68,-186.41 2.45,-9.29 10.72,-19.26 17.72,-19.32 37.72,-4.65 87.09,24.52 106.14,44.38 17.03,17.77 32,38.94 38.34,63.36 5.76,22.17 7.58,53.59 22.96,71.49 27.52,32.03 40.05,-37.41 39.36,-53.35 -1.18,-27.6 -6.52,-54.62 -16.07,-80.51 -10.48,-28.41 -23.89,-57.89 -46.74,-78.44 -10.68,-9.61 -22.01,-18.09 -34.89,-24.53 -10.85,-5.42 -21.68,-9.04 -30.66,-17.39 -8.73,-8.12 -6.61,-27.17 7.49,-27.63 60.4,1.52 186.99,44.36 175.96,-25.68"
         style="fill:#ed2024;fill-opacity:1;fill-rule:nonzero;stroke:none"
         id="path84" />
      <path
         d="m 1152.85,2227.71 c -26.32,-29.38 -79.35,-37.09 -112.91,-7.2 -30.82,27.47 -38.72,101.85 -31.66,118.44 4.46,10.46 48.35,23.48 67.17,30.49 29.2,10.88 52.21,20.64 87.76,31.94 21.24,6.74 21.29,-6.65 22.41,-19.99 4.28,-51.92 3.67,-113.04 -32.77,-153.68"
         style="fill:#9d1d20;fill-opacity:1;fill-rule:nonzero;stroke:none"
         id="path86" />
      <path
         d="m 1059.59,2248.31 c 28.22,-29.4 65.18,-9.48 79.72,21.4 13.09,27.83 17.32,57.62 13.08,93.24 -34.79,-12.38 -81.63,-29.81 -109.53,-41.43 -5.58,-2.33 -1.12,-54.62 16.73,-73.21"
         style="fill:#f4af0d;fill-opacity:1;fill-rule:nonzero;stroke:none"
         id="path88" />
      <path
         d="m 677.313,2215.32 c 28.039,-29.38 84.542,-37.1 120.285,-7.21 32.832,27.48 41.25,101.85 33.73,118.45 -4.758,10.46 -51.504,23.47 -71.562,30.49 -31.094,10.87 -55.618,20.64 -93.496,31.93 -22.625,6.74 -22.676,-6.65 -23.868,-19.99 -4.55,-51.91 -3.906,-113.04 34.911,-153.67"
         style="fill:#9d1d20;fill-opacity:1;fill-rule:nonzero;stroke:none"
         id="path90" />
      <path
         d="m 776.66,2235.91 c -30.058,-29.39 -69.433,-9.47 -84.922,21.4 -13.945,27.84 -18.457,57.63 -13.945,93.25 37.078,-12.38 86.98,-29.81 116.699,-41.43 5.938,-2.33 1.192,-54.62 -17.832,-73.22"
         style="fill:#f4af0d;fill-opacity:1;fill-rule:nonzero;stroke:none"
         id="path92" />
      <path
         d="m 965.32,2199.12 c -31.773,2.12 -52.293,3.48 -97.097,-1.75 -26.414,-3.07 -26.075,-31.95 -0.879,-33.33 16.953,-0.93 82.883,-0.25 100.027,0.16 27.649,0.64 32.819,32.6 -2.051,34.92"
         style="fill:#9d1d20;fill-opacity:1;fill-rule:nonzero;stroke:none"
         id="path94" />
      <path
         d="m 1237.55,2452.59 c -8.08,32.47 -41.29,60.12 -66.11,81.02 -21.33,17.95 -58.08,42.13 -87.09,35.36 -28.96,-6.75 -38.95,-36.67 -17.31,-58.24 15.32,-15.27 37.32,-25.88 54.53,-39.38 22.18,-17.39 38.09,-41.63 58.84,-60.51 12.05,-10.96 32.09,-10.17 44.69,-0.89 14.34,10.57 16.46,26.53 12.45,42.64"
         style="fill:#ffffff;fill-opacity:1;fill-rule:nonzero;stroke:none"
         id="path96" />
      <path
         d="m 631.25,2138.71 c -11.621,12.09 -21.113,23.69 -30.586,37.74 -12.976,19.24 -38.801,8.34 -43.945,-10.59 -5.684,-20.92 8.027,-42.06 20.652,-57.48 12.719,-15.55 34.055,-37.27 55.344,-36.26 11.34,0.54 20.742,10.36 22.578,21.15 3.242,19.09 -12.813,33.76 -24.043,45.44"
         style="fill:#ffffff;fill-opacity:1;fill-rule:nonzero;stroke:none"
         id="path98" />
      <path
         d="m 1507.83,2472.18 c -0.42,6.71 -5.54,14.7 -12.16,16.87 -4.91,1.6 -8.27,2.32 -13.39,1.02 -0.8,-0.2 -1.61,-0.4 -2.42,-0.61 -7.37,-1.87 -11.15,-9.39 -12.99,-15.94 -4.25,-15.25 -8.49,-29.4 -15.1,-43.86 -7.08,-15.48 -16.56,-29.77 -19.54,-46.75 -2.74,-15.53 17.89,-31.07 30.87,-18.88 26.35,24.77 47.01,71.73 44.73,108.15"
         style="fill:#ffffff;fill-opacity:1;fill-rule:nonzero;stroke:none"
         id="path100" />
      <path
         d="m 1559.23,2237.08 c -22.7,22.53 -69.62,27.02 -94.88,6.13 -9.64,-7.98 -8.22,-28.44 7.02,-29.12 11.36,-0.52 22.53,1.67 33.91,0.72 13.77,-1.14 26.6,-6.47 40.13,-8.76 18.75,-3.18 25.61,19.33 13.82,31.03"
         style="fill:#ffffff;fill-opacity:1;fill-rule:nonzero;stroke:none"
         id="path102" />
      <path
         d="m 2329.11,2196.2 c -13.94,-2.74 -35.79,-11.07 -43.54,3.21 -1.45,2.65 -3.77,14.46 11.85,28.08 12.59,8.51 31.55,14.5 47.82,14.73 32.17,0.38 77.36,-18.78 73.04,-47.04 -2.8,-18.22 -44.91,1.26 -53.56,3.02 -12,2.37 -23.79,0.33 -35.61,-2 z m 477.43,183.05 c -9.43,43.28 -39.18,124.63 -120.15,163.48 17.65,46.35 -1.58,111.52 -22.45,150.75 -19.76,37.33 -70.39,93.29 -111.89,49.13 -18.92,-20.12 -19.89,-50.15 -18.17,-76.42 1.76,-26.54 7.11,-72.32 -30.96,-71.12 -16.97,0.57 -291.68,2.1 -309.11,1.54 -39,-1.21 -33.52,44.58 -31.7,71.12 1.76,26.26 0.79,56.29 -18.59,76.41 -42.54,44.16 -94.37,-11.8 -114.68,-49.13 -21.34,-39.23 -41.04,-104.36 -22.96,-150.74 -84.51,-40.39 -113.47,-120.21 -123.13,-163.49 -9.4,-41.97 -10.27,-88.69 -5.95,-131.35 4.5,-44.17 25.98,-82.28 56.61,-113.66 12.78,-13.06 27.89,-23.43 42.58,-34.26 7.44,-5.47 14.36,-11.33 21.06,-17.7 11.89,-11.35 8.04,-27.57 6.31,-42.17 -3.71,-32.11 -3.43,-72.04 20.98,-96.53 24.9,-24.92 60.46,-20.7 84.5,2.92 25.52,25.06 45.36,59.87 55.78,94.12 9.38,2.42 65.68,-4.97 86.69,-7.56 22.03,-2.8 174.03,-4.33 195.51,-1.58 20.49,2.63 72.74,6.91 81.95,4.49 10.13,-34.25 32.21,-65.95 57.07,-91.01 23.49,-23.61 58.2,-27.84 82.51,-2.92 23.85,24.5 24.12,64.42 20.46,96.5 -1.63,14.65 -5.44,30.87 6.22,42.2 6.51,6.32 13.25,12.22 20.51,17.71 14.31,10.83 29.09,21.15 41.54,34.27 29.95,31.36 50.87,69.48 55.27,113.6 4.23,42.67 3.4,89.42 -5.81,131.4"
         style="fill:#7aa22a;fill-opacity:1;fill-rule:nonzero;stroke:none"
         id="path104" />
      <path
         d="m 2720.56,2158.83 c -22.17,-18.69 -52.7,-35.28 -65.6,-62.86 -13.51,-28.88 -1.89,-57.68 -3.59,-87.91 -0.65,-11.3 -1.25,-29.49 -11.1,-37.18 -14.49,-11.36 -27.62,2.03 -36.19,14.33 -18.36,26.39 -37.27,62.09 -47.45,92.58 -4.64,13.94 -71.94,0.67 -92.24,-0.47 -75.09,-4.18 -113.82,-4.18 -231.09,1.57 -20.8,1 -88.81,15.95 -98.41,-6.42 -12.77,-29.74 -25.9,-59.33 -44.7,-85.7 -8.77,-12.31 -22.23,-25.7 -37.09,-14.35 -10.07,7.7 -10.69,25.88 -11.35,37.18 -1.75,30.24 10.15,59.03 -3.68,87.91 -13.22,27.59 -44.5,44.18 -67.21,62.86 -58.96,48.5 -57.23,129.72 -47.55,198.62 9.23,65.7 54.19,121.45 109.28,156 14.28,5.94 19.58,10.12 16.25,22.89 -7.71,29.53 -13,51.34 -6.7,82.17 5.21,25.55 15.73,52.08 30.21,73.8 12.6,18.89 38.83,42.98 50.3,10.65 8.15,-22.97 -0.87,-53 0.39,-77.06 2.46,-46.99 36.9,-69.92 80.71,-68.53 27.24,0.86 262.9,-0.68 289.49,-1.55 42.76,-1.39 76.38,21.54 78.78,68.53 1.23,24.07 -7.58,54.09 0.39,77.06 11.19,32.33 36.78,8.24 49.08,-10.65 14.14,-21.72 24.41,-48.25 29.5,-73.8 6.14,-30.83 0.98,-52.64 -6.55,-82.16 -3.25,-12.79 0.51,-15.41 15.86,-22.9 53.78,-34.55 97.67,-90.3 106.67,-156 9.46,-68.89 11.13,-150.11 -46.41,-198.61"
         style="fill:#c3e014;fill-opacity:1;fill-rule:nonzero;stroke:none"
         id="path106" />
      <path
         d="m 2594.56,2263.76 c -26.31,-29.37 -79.35,-37.09 -112.9,-7.2 -30.83,27.47 -38.72,101.85 -31.66,118.44 4.46,10.46 48.34,23.47 67.17,30.49 29.19,10.88 52.19,20.64 87.76,31.93 21.24,6.74 21.28,-6.64 22.4,-19.99 4.28,-51.92 3.67,-113.04 -32.77,-153.67"
         style="fill:#7aa22a;fill-opacity:1;fill-rule:nonzero;stroke:none"
         id="path108" />
      <path
         d="m 2501.31,2284.36 c 28.21,-29.4 65.17,-9.48 79.71,21.4 13.09,27.82 17.32,57.62 13.08,93.24 -34.79,-12.38 -81.63,-29.81 -109.53,-41.43 -5.58,-2.33 -1.11,-54.62 16.74,-73.21"
         style="fill:#f3cb17;fill-opacity:1;fill-rule:nonzero;stroke:none"
         id="path110" />
      <path
         d="m 2098.12,2269.19 c 28.04,-29.38 84.53,-37.09 120.28,-7.21 32.84,27.47 41.25,101.84 33.73,118.44 -4.75,10.46 -51.5,23.48 -71.55,30.49 -31.1,10.88 -55.62,20.64 -93.5,31.94 -22.63,6.74 -22.68,-6.65 -23.87,-19.99 -4.55,-51.92 -3.91,-113.04 34.91,-153.67"
         style="fill:#7aa22a;fill-opacity:1;fill-rule:nonzero;stroke:none"
         id="path112" />
      <path
         d="m 2197.47,2289.78 c -30.06,-29.4 -69.43,-9.48 -84.92,21.4 -13.96,27.83 -18.46,57.62 -13.95,93.24 37.08,-12.38 86.99,-29.81 116.7,-41.43 5.93,-2.33 1.19,-54.62 -17.83,-73.21"
         style="fill:#f3cb17;fill-opacity:1;fill-rule:nonzero;stroke:none"
         id="path114" />
      <path
         d="m 2418.28,2195.18 c -2.8,-18.22 -44.91,1.26 -53.56,3.02 -12,2.37 -23.79,0.33 -35.61,-2 -13.94,-2.74 -35.79,-11.07 -43.54,3.21 -1.45,2.65 -3.77,14.46 11.85,28.08 12.59,8.51 31.55,14.5 47.82,14.73 32.17,0.38 77.36,-18.78 73.04,-47.04 z m -31.76,63.13 c -33.75,11.7 -72.37,10.82 -111.93,-19.53 -20.45,-21.15 -18.73,-36.3 -18.59,-40.07 0.98,-20.17 25.05,-28.63 41.79,-31.19 10.65,-1.62 20.45,-0.57 30.95,1.39 18.09,3.36 31.7,3.82 49.46,-1.61 17.63,-5.41 46.4,-8.61 57.97,8.44 27.15,40.13 -17.85,71.55 -49.65,82.57"
         style="fill:#7aa22a;fill-opacity:1;fill-rule:nonzero;stroke:none"
         id="path116" />
      <path
         d="m 2418.28,2195.18 c -2.8,-18.22 -44.91,1.26 -53.56,3.02 -12,2.37 -23.79,0.33 -35.61,-2 -13.94,-2.74 -35.79,-11.07 -43.54,3.21 -1.45,2.65 -3.77,14.46 11.85,28.08 12.59,8.51 31.55,14.5 47.82,14.73 32.17,0.38 77.36,-18.78 73.04,-47.04"
         style="fill:#496325;fill-opacity:1;fill-rule:nonzero;stroke:none"
         id="path118" />
      <path
         d="m 2641.45,2612.22 c -1.81,20.1 -7.62,36.09 -25.74,45.97 -10.75,5.86 -24.43,-4.91 -22.87,-16.5 1.77,-13.21 4.67,-25.39 4.82,-39.05 0.17,-16.12 -0.78,-31.09 8.17,-45.23 5.56,-8.78 21.29,-9.49 27.1,-0.55 10.81,16.64 10.25,36.21 8.52,55.36"
         style="fill:#ffffff;fill-opacity:1;fill-rule:nonzero;stroke:none"
         id="path120" />
      <path
         d="m 2750.49,2334.66 c -1.56,44.3 -20.53,106.71 -59.89,131.5 -11.07,6.97 -24.61,5.04 -30.78,-7.47 -8.67,-17.64 3.6,-30.02 9.21,-45.83 8.13,-22.89 16.25,-43.75 19.71,-68.03 7.28,-51.28 -19.12,-96.42 -19.94,-146.26 -0.37,-22.64 28.41,-24.28 40.66,-12.08 35.48,35.31 42.71,100.83 41.03,148.17"
         style="fill:#ffffff;fill-opacity:1;fill-rule:nonzero;stroke:none"
         id="path122" />
      <path
         d="m 2035.16,2162.56 c -15.06,24.19 -48.66,53.43 -56.54,58.78 -10.09,6.84 -24.43,2.03 -24.01,-8.15 1.53,-36.74 36.48,-65.02 69.6,-74.9 13.2,-3.93 18.82,11.61 10.95,24.27"
         style="fill:#ffffff;fill-opacity:1;fill-rule:nonzero;stroke:none"
         id="path124" />
      <path
         d="m 1503.84,1017.05 c -18.88,-65.429 -79.53,-123.671 -145.29,-140.062 39.02,-37.418 63.91,-96.808 65.56,-147.199 2.38,-72.449 -64.59,-151.398 -134.18,-105.867 -21.88,14.308 -33.63,44 -44.21,67.5 -14.66,32.508 -30.48,54.93 -66.1,61.91 -31.4,6.156 -446.319,7.137 -478.253,1.207 -37.656,-6.98 -54.355,-29.398 -69.836,-61.91 -11.16,-23.5 -23.582,-53.188 -46.726,-67.5 -73.528,-45.527 -144.325,33.422 -141.809,105.883 1.75,50.379 28.051,109.769 69.309,147.187 -69.5,16.403 -133.606,74.629 -153.555,140.051 -12.957,42.47 -7.031,89.7 27.371,120.75 39.649,35.86 83.567,22.27 115.598,-14.8 23.094,-26.74 73.039,-86.48 100.547,-29.32 21.836,45.28 26.601,92.84 58.781,134.87 39.695,51.77 79.148,75.71 131.609,88.46 53.66,13.06 111.907,13.06 159.453,14.07 50.711,0.2 95.461,-3.53 141.131,-15.28 49.64,-12.75 86.96,-36.69 124.52,-88.47 30.48,-42.03 34.99,-89.58 55.67,-134.86 26.01,-57.17 73.28,2.58 95.11,29.32 30.34,37.07 71.88,50.66 109.44,14.79 32.52,-31.05 38.13,-78.27 25.86,-120.73"
         style="fill:#3a52ac;fill-opacity:1;fill-rule:nonzero;stroke:none"
         id="path126" />
      <path
         d="m 1408.52,950.512 c -36.82,-29.871 -70.83,-36.211 -116.24,-33.582 -31.68,1.84 -34.09,-24.86 -14.47,-35.77 21.81,-12.129 68.24,-55.308 77.62,-71.609 18.49,-32.09 34.8,-77.93 19.58,-114.942 -10.63,-25.808 -41.65,-50.328 -65.88,-27.269 -15.54,14.789 -23.09,36.801 -32.8,55.769 -27.72,54.141 -72.55,75.051 -129.92,75.11 -29.13,0.031 -375.305,1.25 -409.945,1.222 -60.625,-0.07 -108.008,-20.98 -137.293,-75.101 -10.254,-18.988 -18.234,-41 -34.66,-55.789 -25.606,-23.059 -58.391,1.461 -69.617,27.269 -16.094,37.008 1.152,82.852 20.679,114.961 9.914,16.278 58.989,59.457 82.031,71.59 20.735,10.91 18.208,37.609 -15.3,35.777 -47.989,-2.628 -83.907,3.704 -122.832,33.571 -33.782,25.941 -67.325,66.821 -67.09,112.311 0.195,36.73 46.301,71.91 84.402,26.16 22.844,-27.44 46.469,-53.34 83.028,-60.39 90.625,-17.42 90.753,113.51 123.468,161.7 40.508,59.7 71.914,69.14 115.879,85.24 44.348,16.23 243.53,15.96 287.92,-1.21 41.6,-16.12 71.33,-25.55 109.66,-85.24 30.95,-48.2 31.07,-179.12 116.83,-161.68 34.6,7.04 56.97,32.93 78.58,60.36 36.05,45.76 79.69,10.58 79.86,-26.15 0.23,-45.5 -31.51,-86.371 -63.49,-112.308"
         style="fill:#5692d5;fill-opacity:1;fill-rule:nonzero;stroke:none"
         id="path128" />
      <path
         d="m 822.402,961.289 c -28.156,-12.769 -64.648,-0.43 -76.14,27.172 -8.117,19.409 -6.36,46.249 18.093,63.469 44.649,24.27 74.54,-1.35 85.215,-14.51 21.504,-26.48 -0.039,-63.869 -27.168,-76.131 z m 51.973,80.121 c -17.039,34.02 -51.973,51.3 -94.199,42.85 -25.774,-6.07 -65.656,-26.9 -61.731,-86.78 3.11,-47.21 59.309,-77.832 103.618,-64.242 45.71,14.063 74.734,63.282 52.312,108.172"
         style="fill:#3a52ac;fill-opacity:1;fill-rule:nonzero;stroke:none"
         id="path130" />
      <path
         d="m 822.066,961.289 c -28.156,-12.769 -64.648,-0.43 -76.144,27.172 -8.106,19.409 -6.356,46.249 18.098,63.469 44.648,24.27 74.539,-1.35 85.214,-14.51 21.504,-26.48 -0.039,-63.869 -27.168,-76.131"
         style="fill:#ffffff;fill-opacity:1;fill-rule:nonzero;stroke:none"
         id="path132" />
      <path
         d="m 1102.51,956.719 c -28.11,-12.75 -64.64,-0.43 -76.14,27.23 -8.11,19.361 -6.36,46.201 18.15,63.421 44.6,24.31 74.48,-1.31 85.22,-14.51 21.49,-26.49 -0.1,-63.809 -27.23,-76.141 z m 51.97,80.181 c -16.98,33.96 -51.97,51.29 -94.19,42.85 -25.77,-6.08 -65.661,-26.94 -61.735,-86.77 3.115,-47.281 59.355,-77.89 103.615,-64.261 45.71,14.031 74.73,63.281 52.31,108.181"
         style="fill:#3a52ac;fill-opacity:1;fill-rule:nonzero;stroke:none"
         id="path134" />
      <path
         d="m 1103.01,956.719 c -28.1,-12.75 -64.64,-0.43 -76.15,27.23 -8.1,19.361 -6.35,46.201 18.16,63.421 44.6,24.31 74.49,-1.31 85.21,-14.51 21.51,-26.49 -0.09,-63.809 -27.22,-76.141"
         style="fill:#ffffff;fill-opacity:1;fill-rule:nonzero;stroke:none"
         id="path136" />
      <path
         d="m 817.859,1043.76 c -20.046,11.78 -54.675,-4.09 -56.773,-30.01 -1.273,-15.531 9.324,-30.59 23.289,-34.781 14.023,-7.199 32.441,-4.168 44.246,8.203 7.832,8.18 21.524,37.618 -10.762,56.588"
         style="fill:#100f0d;fill-opacity:1;fill-rule:nonzero;stroke:none"
         id="path138" />
      <path
         d="m 1097.08,1040.14 c -20.04,11.77 -54.68,-4.09 -56.78,-30.02 -1.26,-15.53 9.33,-30.589 23.29,-34.768 14.03,-7.204 32.43,-4.172 44.26,8.179 7.82,8.211 21.51,37.639 -10.77,56.609"
         style="fill:#100f0d;fill-opacity:1;fill-rule:nonzero;stroke:none"
         id="path140" />
      <path
         d="m 985.84,947.09 c -33.184,2.211 -54.59,3.629 -101.375,-1.82 -27.578,-3.219 -27.219,-33.372 -0.91,-34.821 17.695,-0.961 86.523,-0.25 104.433,0.172 28.862,0.668 34.252,34.027 -2.148,36.469"
         style="fill:#3a52ac;fill-opacity:1;fill-rule:nonzero;stroke:none"
         id="path142" />
      <path
         d="m 1186.5,1180.37 c -23.67,38.13 -72.31,80.47 -121.56,74.23 -16.68,-2.12 -29.13,-23.39 -16.78,-37.68 12.09,-13.97 43.84,-30.92 75.57,-80.28 23.22,-36.11 26.56,-88.03 65.63,-111.78 11.72,-7.12 25.2,-2.86 29.76,9.26 9.01,23.91 7.88,81.01 -32.62,146.25"
         style="fill:#ffffff;fill-opacity:1;fill-rule:nonzero;stroke:none"
         id="path144" />
      <path
         d="m 1455.04,1054.67 c -3.51,7.36 -12.91,13.91 -21.34,9.49 -10.65,-5.59 -14.33,-12.58 -20.8,-22.38 -7.9,-11.98 -15.96,-23.5 -24.71,-34.87 -11.25,-14.621 -30.06,-25.23 -38.96,-40.969 -4.04,-7.152 -0.36,-15.98 5.1,-20.992 20.28,-18.617 49.04,10.563 62.96,24 18.05,17.43 50.32,59.341 37.75,85.721"
         style="fill:#ffffff;fill-opacity:1;fill-rule:nonzero;stroke:none"
         id="path146" />
      <path
         d="m 1335.54,817.629 c -11.2,17.801 -33.69,40.23 -56.18,38.543 -12.59,-0.953 -19.57,-16.613 -11.84,-26.613 10.28,-13.309 23.11,-23.899 32.59,-38.071 11.68,-17.476 14.01,-39.429 24.42,-57.527 8.38,-14.602 30.91,-6.539 33.33,8.027 4.36,26.293 -8.66,53.942 -22.32,75.641"
         style="fill:#ffffff;fill-opacity:1;fill-rule:nonzero;stroke:none"
         id="path148" />
      <path
         d="m 777.031,835.391 c -10.41,2.711 -21.191,3.757 -31.914,4.668 -10.469,0.89 -21.367,2.132 -31.367,-1.68 -10.652,-4.039 -11.387,-19.988 -0.645,-24.488 9.661,-4.059 20.606,-4.559 30.911,-6.102 10.574,-1.578 21.629,-2.648 32.105,-0.301 15.598,3.5 16.914,23.731 0.91,27.903"
         style="fill:#ffffff;fill-opacity:1;fill-rule:nonzero;stroke:none"
         id="path150" />
      <path
         d="m 1020.17,3735.23 c -7.77,18.59 -6.09,44.29 17.38,60.79 42.72,23.25 71.36,-1.25 81.63,-13.89 20.59,-25.39 -0.1,-61.17 -26.08,-72.94 -26.92,-12.22 -61.92,-0.41 -72.93,26.04 z m -268.307,4.36 c -7.758,18.55 -6.086,44.26 17.34,60.75 42.766,23.29 71.402,-1.25 81.625,-13.89 20.594,-25.39 -0.043,-61.13 -26.027,-72.93 -26.965,-12.23 -61.914,-0.42 -72.938,26.07 z M 913.438,3624.6 c -13.946,-2.74 -35.84,-11.06 -43.598,3.2 -1.438,2.65 -3.719,14.46 11.898,28.12 12.598,8.46 31.563,14.51 47.832,14.69 32.168,0.43 77.34,-18.77 73.03,-47.04 -2.842,-18.18 -44.955,1.31 -53.596,3.02 -11.953,2.43 -23.801,0.32 -35.566,-1.99 z m 370.192,114.38 c 9.81,32.64 17.81,65.92 23.8,99.53 19.76,110.68 48.2,277.88 -68.56,343.13 -55.77,31.19 -114.21,12.23 -170.17,-7.66 -34.03,-12.09 -63.32,-27.85 -169.52,-25.99 -37.52,0.7 -73.313,15.48 -108.731,27.52 -58.336,19.89 -119.183,38.9 -177.285,7.71 -121.644,-65.3 -91.992,-232.51 -71.394,-343.18 6.222,-33.6 14.543,-66.89 24.722,-99.51 11.438,-36.64 28.637,-71.08 40.399,-107.57 22.308,-69.35 -20.082,-122.71 -42.489,-185.19 -17.152,-47.97 -13.941,-118.62 51.129,-121.92 49.414,-2.51 96.364,31.14 125.922,69.63 8.094,-45.5 36.262,-86.88 83.442,-96.54 36.675,-7.53 70.32,21 90.41,48.15 6.367,8.65 11.941,18.32 16.726,28.54 4.746,-10.79 10.371,-21 16.778,-30.07 19.25,-27.14 51.601,-55.74 86.791,-48.21 45.28,9.73 72.33,51.09 80.09,96.6 28.35,-38.49 73.44,-72.19 120.9,-69.68 62.47,3.29 65.54,74 49.08,121.97 -21.47,62.47 -62.19,115.83 -40.76,185.19 11.25,36.49 27.79,70.93 38.72,107.55"
         style="fill:#30738b;fill-opacity:1;fill-rule:nonzero;stroke:none"
         id="path152" />
      <path
         d="m 1207.26,3655.21 c -17.35,-56.32 -13.31,-105.49 10.62,-159.02 11.01,-24.62 71.2,-148.59 -0.42,-125.92 -54.05,17.12 -75.61,61.56 -101.99,108.87 -6.12,10.96 -18.99,12 -26.29,5.55 -4.81,-2.2 -8.59,-7.18 -9.23,-12.66 -3.19,-27.13 0.48,-56.12 -9.21,-82.12 -7.2,-19.31 -24.46,-51.79 -49.36,-46.27 -48.829,10.79 -54.29,79.08 -70.638,119.28 -0.012,0.56 0,1.12 -0.019,1.67 -0.735,19.19 -27.246,21.13 -34.844,5.64 -19.18,-39.05 -22.793,-113.72 -76.176,-125.04 -25.933,-5.51 -43.918,26.95 -51.418,46.27 -10.086,26 -6.273,55 -9.59,82.11 -0.668,5.49 -4.609,10.46 -9.613,12.66 -7.605,6.47 -21.016,5.42 -27.387,-5.55 -27.484,-47.3 -49.933,-91.74 -106.234,-108.86 -74.606,-22.68 -11.906,101.3 -0.441,125.92 24.918,53.52 29.136,102.69 11.074,159.01 -9.949,31.03 -24.473,60.57 -35.082,91.43 -11.742,34.12 -19.742,69.46 -26.328,104.89 -17.102,92.01 -51.723,278.87 82,301.7 30.125,5.13 62.171,-5.51 90.363,-14.89 27.976,-9.31 55.508,-19.92 84.43,-25.79 86.433,-17.57 150.007,-8.88 178.203,-1.55 27.49,7.12 54.2,16.48 81.05,25.79 27.06,9.38 57.83,20.03 86.76,14.88 128.38,-22.81 95.14,-209.69 78.71,-301.69 -6.32,-35.43 -13.99,-70.76 -25.27,-104.9 -10.19,-30.85 -24.12,-60.38 -33.67,-91.41"
         style="fill:#5bc9d4;fill-opacity:1;fill-rule:nonzero;stroke:none"
         id="path154" />
      <path
         d="m 826.051,3713.52 c -26.965,-12.23 -61.914,-0.42 -72.938,26.07 -7.758,18.55 -6.086,44.26 17.34,60.75 42.766,23.29 71.402,-1.25 81.625,-13.89 20.594,-25.39 -0.043,-61.13 -26.027,-72.93 z m 49.777,76.79 c -16.312,32.53 -49.777,49.12 -90.219,41.04 -24.679,-5.81 -62.89,-25.8 -59.125,-83.12 2.973,-45.27 56.801,-74.6 99.243,-61.54 43.785,13.45 71.578,60.62 50.101,103.62"
         style="fill:#30738b;fill-opacity:1;fill-rule:nonzero;stroke:none"
         id="path156" />
      <path
         d="m 826.656,3712.89 c -26.965,-12.23 -61.922,-0.42 -72.933,26.07 -7.766,18.56 -6.09,44.26 17.336,60.76 42.765,23.29 71.398,-1.25 81.621,-13.9 20.597,-25.38 -0.043,-61.12 -26.024,-72.93"
         style="fill:#ffffff;fill-opacity:1;fill-rule:nonzero;stroke:none"
         id="path158" />
      <path
         d="m 1093.1,3709.19 c -26.92,-12.22 -61.92,-0.41 -72.93,26.04 -7.77,18.59 -6.09,44.29 17.38,60.79 42.72,23.25 71.36,-1.25 81.63,-13.89 20.59,-25.39 -0.1,-61.17 -26.08,-72.94 z m 49.78,76.75 c -16.27,32.58 -49.78,49.18 -90.22,41.09 -24.68,-5.81 -62.894,-25.8 -59.125,-83.11 2.969,-45.29 56.845,-74.61 99.235,-61.6 43.79,13.49 71.58,60.67 50.11,103.62"
         style="fill:#30738b;fill-opacity:1;fill-rule:nonzero;stroke:none"
         id="path160" />
      <path
         d="m 1092.77,3709.19 c -26.93,-12.22 -61.93,-0.41 -72.94,26.04 -7.77,18.59 -6.09,44.29 17.38,60.79 42.73,23.25 71.36,-1.25 81.63,-13.89 20.59,-25.39 -0.1,-61.17 -26.07,-72.94"
         style="fill:#ffffff;fill-opacity:1;fill-rule:nonzero;stroke:none"
         id="path162" />
      <path
         d="m 820.453,3792.55 c -19.203,11.28 -52.371,-3.92 -54.383,-28.75 -1.211,-14.87 8.942,-29.3 22.309,-33.31 13.434,-6.9 31.07,-3.99 42.383,7.85 7.504,7.85 20.617,36.05 -10.309,54.21"
         style="fill:#162721;fill-opacity:1;fill-rule:nonzero;stroke:none"
         id="path164" />
      <path
         d="m 1087.9,3789.08 c -19.2,11.27 -52.37,-3.92 -54.38,-28.75 -1.22,-14.87 8.93,-29.29 22.31,-33.31 13.44,-6.9 31.06,-3.99 42.38,7.84 7.49,7.85 20.61,36.05 -10.31,54.22"
         style="fill:#162721;fill-opacity:1;fill-rule:nonzero;stroke:none"
         id="path166" />
      <path
         d="m 1002.6,3623.57 c -2.842,-18.18 -44.955,1.31 -53.596,3.02 -11.953,2.43 -23.801,0.32 -35.566,-1.99 -13.946,-2.74 -35.84,-11.06 -43.598,3.2 -1.438,2.65 -3.719,14.46 11.898,28.12 12.598,8.46 31.563,14.51 47.832,14.69 32.168,0.43 77.34,-18.77 73.03,-47.04 z m -31.748,63.12 c -33.743,11.77 -72.375,10.84 -111.93,-19.52 -20.461,-21.1 -18.785,-36.3 -18.594,-40.07 0.934,-20.13 25.004,-28.63 41.781,-31.19 10.606,-1.62 20.411,-0.55 30.918,1.39 18.086,3.35 31.7,3.87 49.461,-1.62 17.657,-5.39 46.432,-8.6 58.012,8.46 27.09,40.11 -17.85,71.54 -49.648,82.55"
         style="fill:#30738b;fill-opacity:1;fill-rule:nonzero;stroke:none"
         id="path168" />
      <path
         d="m 1002.6,3623.57 c -2.842,-18.18 -44.955,1.31 -53.596,3.02 -11.953,2.43 -23.801,0.32 -35.566,-1.99 -13.946,-2.74 -35.84,-11.06 -43.598,3.2 -1.438,2.65 -3.719,14.46 11.898,28.12 12.598,8.46 31.563,14.51 47.832,14.69 32.168,0.43 77.34,-18.77 73.03,-47.04"
         style="fill:#162721;fill-opacity:1;fill-rule:nonzero;stroke:none"
         id="path170" />
      <path
         d="m 1244.14,4016.45 c -24.87,67.19 -97.58,105.82 -166.93,92.37 -19.57,-3.8 -35.84,-27.47 -20.31,-45.61 17.83,-20.81 44.19,-19.28 68.06,-28.82 21.35,-8.51 36.92,-25.45 45.71,-46.15 11.08,-26.08 14.04,-55.95 12.35,-83.98 -2.07,-34.54 -17.8,-75.06 -5.3,-108.5 8.12,-21.74 33.29,-21.48 47.8,-7.44 25.84,25 31.4,77.66 34.78,111.81 3.89,39.26 -2.5,79.41 -16.16,116.32"
         style="fill:#ffffff;fill-opacity:1;fill-rule:nonzero;stroke:none"
         id="path172" />
      <path
         d="m 1211.02,3462.87 c -4.4,22.5 -12.86,43.98 -19.82,65.76 -8.06,25.2 -9.28,52.14 -18.04,77.05 -3.49,9.95 -20.61,11.75 -24.07,0.62 -14.77,-47.62 7.53,-114.49 36.58,-153.16 7.85,-10.45 28.13,-4.53 25.35,9.73"
         style="fill:#ffffff;fill-opacity:1;fill-rule:nonzero;stroke:none"
         id="path174" />
      <path
         d="m 663.953,3539.39 c -9.75,-8.52 -10.16,-20.87 -14.187,-32.62 -4.2,-12.28 -9.383,-25.83 -10.684,-38.76 -1.168,-11.63 14.238,-20.61 22.012,-9.8 6.902,9.59 11.351,20.69 15.918,31.54 2.265,5.38 7.035,29.87 7.363,37.16 0.754,16.72 -11.461,20.32 -20.422,12.48"
         style="fill:#ffffff;fill-opacity:1;fill-rule:nonzero;stroke:none"
         id="path176" />
      <path
         d="m 3223.76,2406.51 c 15.43,68.94 49.69,136.81 94.27,194.35 16.86,29.57 46.43,42.86 44.48,74.98 -1.63,26.83 -2.36,55.68 1.67,82.32 5.91,38.44 37.98,85.68 78.89,58.9 34.76,-22.78 62.65,-71.58 80.64,-111.19 3.72,-8.13 137.31,-1.95 158.09,-8.09 4.83,13.01 45.23,71.08 58.52,87.16 17.25,20.87 48.34,48.66 78,36.15 35.74,-15.01 38.77,-64.27 43.84,-97.42 2.83,-18.54 1.76,-56.34 16.64,-69.67 87.1,-78.19 111.74,-181.99 127.45,-273.51 9.9,-57.79 19.29,-115.84 26.58,-174.03 6.28,-49.93 10.24,-93.01 8.52,-154.98 -0.93,-34.35 -13.96,-67.82 -23.85,-68.18 -39.51,-1.58 -89.06,70.31 -110.4,98.77 -11.76,-19.9 -51.55,-115.2 -75.53,-116.21 -27.1,-1.16 -91.11,89.99 -103.05,101.05 -0.52,0.47 -1.07,0.98 -1.59,1.45 -10.64,-22.97 -58.05,-115.28 -89.43,-115.28 -29.83,0 -106.9,112.72 -106.9,112.72 -1.17,-1.16 -80.19,-107.33 -112.73,-104.59 -26.73,2.23 -84.45,114.9 -93.2,135.18 -11.9,-13.95 -24.41,-34.82 -40.06,-51.14 -18.59,-19.38 -39.51,-51.92 -66.61,-49.18 -19.76,1.96 -26.31,65.73 -26.59,92.69 -1.02,106.78 8.92,213.36 32.35,317.75"
         style="fill:#642275;fill-opacity:1;fill-rule:nonzero;stroke:none"
         id="path178" />
      <path
         d="m 3227.88,2167.49 c 0.15,43.82 4.05,172.55 41.25,268.04 21.11,54.21 45.69,100.45 83.2,147.25 20.92,20.92 30.51,35.68 40.43,48.39 14.63,18.72 9.45,42.75 10.26,64.47 0.88,23.58 -1.69,48.56 6.19,71.21 9.61,27.6 25.61,3.15 35.62,-10.76 14.1,-19.58 26.06,-39.46 36.81,-61.07 9.08,-18.25 16.21,-27.14 36.87,-29.73 12.12,-1.53 31.24,-1.38 43.37,-0.56 14.15,0.95 60.66,-1.02 76.32,-1.76 14.12,-0.68 40.89,-2.05 55.05,-1.97 18.16,-0.36 30.8,25.69 39.18,38.93 10.42,16.48 31.27,56.01 57.29,73.55 17.47,11.77 19.95,0.92 23.74,-15.86 7.13,-31.64 7.33,-65.92 17.36,-96.71 8.42,-25.83 27.01,-35.13 51.42,-61.86 46.64,-57.86 63.52,-112.53 79.48,-186.97 19.86,-92.73 29.79,-183.59 39.33,-277.92 0.58,-5.78 3.53,-95.53 -3.04,-93.55 -17.16,5.18 -62.88,63.58 -76.98,78.64 -25.4,27.18 -26.8,20.81 -34.73,8.51 -10.19,-15.75 -53.2,-115.03 -57.84,-115.81 -6.3,-1.05 -101.49,118.92 -111.95,109.61 -18,-15.99 -69.26,-118.24 -79.01,-119.69 -10.47,-1.55 -93.67,111.57 -109.24,111.57 -10.46,0 -100.69,-99.02 -106.52,-102.27 -8.4,3.03 -63.15,98.91 -76.59,122.19 -8.64,14.93 -14.44,25.39 -36.52,1 -19.92,-22.03 -32.54,-37.19 -76.47,-81.21 -6.81,-6.82 -4.35,92.05 -4.28,114.34"
         style="fill:#a337a1;fill-opacity:1;fill-rule:nonzero;stroke:none"
         id="path180" />
      <path
         d="m 3832.01,2214.85 c -26.31,-29.37 -79.34,-37.09 -112.9,-7.19 -30.82,27.46 -38.72,101.83 -31.65,118.42 4.45,10.46 48.34,23.48 67.16,30.5 29.2,10.88 52.2,20.64 87.76,31.94 21.24,6.73 21.29,-6.66 22.4,-20 4.28,-51.92 3.68,-113.03 -32.77,-153.67"
         style="fill:#642275;fill-opacity:1;fill-rule:nonzero;stroke:none"
         id="path182" />
      <path
         d="m 3738.76,2235.45 c 28.21,-29.4 65.18,-9.48 79.72,21.4 13.09,27.82 17.32,57.61 13.08,93.24 -34.8,-12.38 -81.64,-29.82 -109.53,-41.44 -5.58,-2.31 -1.12,-54.61 16.73,-73.2"
         style="fill:#f9b30b;fill-opacity:1;fill-rule:nonzero;stroke:none"
         id="path184" />
      <path
         d="m 3407.62,2217.95 c 28.03,-29.39 84.54,-37.1 120.28,-7.21 32.84,27.48 41.26,101.85 33.73,118.44 -4.75,10.46 -51.5,23.48 -71.55,30.5 -31.1,10.87 -55.62,20.63 -93.5,31.93 -22.63,6.74 -22.67,-6.65 -23.87,-19.99 -4.56,-51.91 -3.9,-113.05 34.91,-153.67"
         style="fill:#642275;fill-opacity:1;fill-rule:nonzero;stroke:none"
         id="path186" />
      <path
         d="m 3506.97,2238.54 c -30.06,-29.39 -69.43,-9.48 -84.92,21.4 -13.95,27.83 -18.46,57.62 -13.95,93.24 37.09,-12.38 86.99,-29.8 116.7,-41.43 5.94,-2.32 1.19,-54.61 -17.83,-73.21"
         style="fill:#f9b30b;fill-opacity:1;fill-rule:nonzero;stroke:none"
         id="path188" />
      <path
         d="m 3670,2180 c -31.79,2.13 -52.3,3.5 -97.11,-1.74 -26.41,-3.07 -26.06,-31.95 -0.87,-33.34 16.95,-0.93 82.88,-0.24 100.03,0.16 27.65,0.64 32.81,32.61 -2.05,34.92"
         style="fill:#642275;fill-opacity:1;fill-rule:nonzero;stroke:none"
         id="path190" />
      <path
         d="m 3283.13,2179.89 c -0.54,24.82 -0.41,49.52 2.27,75.13 2.54,24.41 -15.19,25.59 -22.05,14.94 -15.51,-24.04 -21.28,-70.59 -7.89,-97.35 7.56,-15.09 28.04,-9.07 27.67,7.28"
         style="fill:#ffffff;fill-opacity:1;fill-rule:nonzero;stroke:none"
         id="path192" />
      <path
         d="m 3851.44,2608.28 c -15.84,11.69 -43.45,-1.8 -38.26,-23.04 4.77,-19.47 15.98,-35.83 24.05,-54.01 8.88,-20 17.24,-40.23 25.1,-60.68 15.9,-41.4 24.93,-84.82 43.35,-125.15 9.42,-20.64 45.65,-18.48 46.18,6.94 1.02,47.74 -13.02,91.6 -29.51,136.05 -15.19,40.97 -34.44,93.02 -70.91,119.89"
         style="fill:#ffffff;fill-opacity:1;fill-rule:nonzero;stroke:none"
         id="path194" />
      <path
         d="m 3934.9,2246.74 c -5.33,-14.36 -4.66,-29.77 -5.21,-44.88 -0.26,-7.12 -2.44,-31.28 -2.59,-36.41 -0.27,-8.42 4.08,-17.26 13.52,-18.23 21.33,-2.19 34.19,22.5 34.09,39.63 -0.14,20.76 -1.28,39.03 -9.2,59.26 -5.08,12.93 -25.43,14.59 -30.61,0.63"
         style="fill:#ffffff;fill-opacity:1;fill-rule:nonzero;stroke:none"
         id="path196" />
      <path
         d="m 2771.23,3128.72 c 0,-42.87 -196.42,-77.62 -438.72,-77.62 -242.31,0 -438.73,34.75 -438.73,77.62 0,42.87 196.42,77.63 438.73,77.63 242.3,0 438.72,-34.76 438.72,-77.63"
         style="fill:#1d1c1c;fill-opacity:1;fill-rule:nonzero;stroke:none"
         id="path198" />
      <path
         d="m 2699.64,3393.23 c -27.56,-43.12 -76.37,-33.55 -112.17,-10.87 -29.84,18.97 -52.11,48.62 -66.89,82.32 -43.09,-69.49 -84.09,-116.81 -188.68,-120.3 -46.33,-1.54 -99.33,25.8 -131.86,59.31 -15.39,15.81 -31.14,36.53 -40.86,58.95 -16.37,-31.9 -40.3,-59.83 -71.95,-77.96 -39.66,-22.69 -93.71,-32.26 -124.25,10.89 -30.45,43.03 -31.47,100.81 -30.31,151.42 1.34,59.33 3.3,118.83 11.67,177.62 15.85,110.92 50.15,232.05 123.64,319.57 34.07,40.53 77.25,73.44 128.66,88.18 121.32,34.77 252.04,11.01 292.06,-2.33 46.25,-15.38 85.39,-47.64 116.15,-88.17 66.39,-87.54 97.35,-208.67 111.6,-319.57 7.58,-58.81 9.3,-118.31 10.56,-177.61 1.03,-50.62 0.15,-108.41 -27.37,-151.45"
         style="fill:#2a5845;fill-opacity:1;fill-rule:nonzero;stroke:none"
         id="path200" />
      <path
         d="m 2682.1,3465.2 c -2.7,-15.93 -6.78,-38.55 -18.93,-49.39 -15.34,-13.69 -35.84,-7.97 -51.39,3.04 -34.58,24.45 -49.89,56.64 -68.47,95.58 -10.36,21.7 -34.98,15.45 -42.27,2.32 -34.5,-62.3 -87.93,-120.23 -162.83,-122.99 -37.07,-1.36 -71.57,12.57 -99.51,36.09 -28.42,23.93 -38.55,57.63 -55.98,89.11 -8.85,16 -32.1,28.79 -46.56,-2.21 -18.6,-39.88 -37.54,-71.12 -75.84,-95.59 -17.24,-11 -39.94,-16.72 -56.93,-3.03 -13.46,10.83 -17.97,33.46 -20.96,49.39 -9,47.98 -4.63,99.16 -2.42,147.6 2.32,51.2 7.99,102.2 17.65,152.56 17.25,89.92 51.26,182.95 110.77,253.75 29.5,35.09 68.43,57.61 111.99,70.55 84.77,25.18 182.37,21.69 246.84,-2.33 38.77,-14.44 74.45,-35.46 101.08,-70.54 53.73,-70.81 84.43,-163.84 100.01,-253.76 8.71,-50.34 13.82,-101.37 15.93,-152.57 1.99,-48.43 5.94,-99.6 -2.18,-147.58"
         style="fill:#45be7b;fill-opacity:1;fill-rule:nonzero;stroke:none"
         id="path202" />
      <path
         d="m 2635.95,3842.81 c -9.68,38.58 -21.94,77.64 -38.3,113.96 -14.83,32.93 -38.1,62.68 -67.21,84.13 -26.27,19.33 -68.83,41.69 -101.41,28.79 -16.64,-6.58 -19.41,-28.06 -6.51,-41.83 8.5,-9.07 18.63,-19.2 68.17,-47.31 24.23,-13.75 44.28,-48.74 53.97,-74.26 11.69,-30.84 15.5,-58.07 23.62,-90 8.84,-34.76 9.92,-79.97 36.12,-106.13 11.92,-11.9 31.97,-3.79 38.45,9.34 16.92,34.28 1.96,88.04 -6.9,123.31"
         style="fill:#ffffff;fill-opacity:1;fill-rule:nonzero;stroke:none"
         id="path204" />
      <path
         d="m 2659.78,3583.28 c -12.12,15.22 -31.63,13.34 -35.49,-3.63 -3.03,-13.24 0.24,-27.86 1.79,-41.18 1.88,-16.17 1.33,-31.62 9.44,-46.2 6.87,-12.37 23.92,-6.59 29.37,3.19 13.79,24.77 9.14,69.95 -5.11,87.82"
         style="fill:#ffffff;fill-opacity:1;fill-rule:nonzero;stroke:none"
         id="path206" />
      <path
         d="m 2299.11,3442.7 c -7.58,13.48 -22.23,23.49 -31.85,35.69 -9.83,12.44 -18.23,26.52 -25.51,40.61 -4.37,8.46 -17.44,10.96 -21.71,0.57 -9.13,-22.29 0.24,-41.81 12.12,-61.07 11.61,-18.83 32.94,-39.82 56.33,-39.65 12.78,0.1 15.58,15.01 10.62,23.85"
         style="fill:#ffffff;fill-opacity:1;fill-rule:nonzero;stroke:none"
         id="path208" />
      <path
         d="m 2258.99,3639.8 c -29.43,-13.34 -67.59,-0.45 -79.63,28.47 -8.47,20.25 -6.65,48.31 18.93,66.33 46.69,25.42 77.96,-1.37 89.12,-15.17 22.48,-27.72 -0.05,-66.74 -28.42,-79.63 z m 54.35,83.84 c -17.8,35.52 -54.35,53.63 -98.51,44.81 -26.94,-6.35 -68.65,-28.18 -64.55,-90.74 3.25,-49.44 62.02,-81.45 108.36,-67.2 47.8,14.69 78.15,66.19 54.7,113.13"
         style="fill:#2a5845;fill-opacity:1;fill-rule:nonzero;stroke:none"
         id="path210" />
      <path
         d="m 2259.66,3639.12 c -29.45,-13.35 -67.61,-0.46 -79.63,28.47 -8.48,20.25 -6.66,48.32 18.92,66.33 46.69,25.43 77.95,-1.37 89.12,-15.18 22.49,-27.7 -0.05,-66.73 -28.41,-79.62"
         style="fill:#ffffff;fill-opacity:1;fill-rule:nonzero;stroke:none"
         id="path212" />
      <path
         d="m 2252.88,3726.09 c -20.97,12.31 -57.18,-4.27 -59.37,-31.39 -1.33,-16.24 9.76,-31.99 24.35,-36.37 14.67,-7.53 33.93,-4.35 46.27,8.57 8.2,8.58 22.51,39.36 -11.25,59.19"
         style="fill:#ed1836;fill-opacity:1;fill-rule:nonzero;stroke:none"
         id="path214" />
      <path
         d="m 2367.33,3807.05 c -26.97,-12.23 -61.91,-0.42 -72.94,26.08 -7.76,18.55 -6.08,44.25 17.34,60.75 42.77,23.29 71.4,-1.25 81.63,-13.9 20.59,-25.38 -0.05,-61.12 -26.03,-72.93 z m 49.78,76.8 c -16.32,32.53 -49.78,49.12 -90.23,41.03 -24.67,-5.81 -62.89,-25.8 -59.12,-83.11 2.97,-45.27 56.8,-74.6 99.24,-61.54 43.79,13.44 71.58,60.62 50.11,103.62"
         style="fill:#2a5845;fill-opacity:1;fill-rule:nonzero;stroke:none"
         id="path216" />
      <path
         d="m 2367.94,3806.43 c -26.97,-12.23 -61.92,-0.42 -72.94,26.07 -7.76,18.55 -6.08,44.26 17.33,60.75 42.78,23.29 71.41,-1.25 81.62,-13.89 20.61,-25.38 -0.03,-61.13 -26.01,-72.93"
         style="fill:#ffffff;fill-opacity:1;fill-rule:nonzero;stroke:none"
         id="path218" />
      <path
         d="m 2361.73,3886.09 c -19.2,11.27 -52.37,-3.92 -54.38,-28.75 -1.21,-14.88 8.94,-29.3 22.31,-33.32 13.44,-6.89 31.07,-3.98 42.38,7.86 7.5,7.85 20.62,36.04 -10.31,54.21"
         style="fill:#ed1836;fill-opacity:1;fill-rule:nonzero;stroke:none"
         id="path220" />
      <path
         d="m 2457.33,3644.55 c -26.97,-12.23 -61.91,-0.42 -72.94,26.08 -7.76,18.55 -6.08,44.25 17.34,60.75 42.77,23.29 71.4,-1.25 81.63,-13.9 20.59,-25.38 -0.05,-61.12 -26.03,-72.93 z m 49.78,76.8 c -16.32,32.53 -49.78,49.12 -90.23,41.03 -24.67,-5.81 -62.89,-25.8 -59.12,-83.11 2.97,-45.27 56.8,-74.6 99.24,-61.54 43.79,13.44 71.58,60.62 50.11,103.62"
         style="fill:#2a5845;fill-opacity:1;fill-rule:nonzero;stroke:none"
         id="path222" />
      <path
         d="m 2457.94,3643.93 c -26.97,-12.23 -61.92,-0.42 -72.94,26.07 -7.76,18.55 -6.08,44.26 17.33,60.75 42.78,23.29 71.41,-1.25 81.62,-13.89 20.61,-25.38 -0.03,-61.13 -26.01,-72.93"
         style="fill:#ffffff;fill-opacity:1;fill-rule:nonzero;stroke:none"
         id="path224" />
      <path
         d="m 2451.73,3723.59 c -19.2,11.27 -52.37,-3.92 -54.38,-28.75 -1.21,-14.88 8.94,-29.3 22.31,-33.32 13.44,-6.89 31.07,-3.98 42.38,7.86 7.5,7.85 20.62,36.04 -10.31,54.21"
         style="fill:#ed1836;fill-opacity:1;fill-rule:nonzero;stroke:none"
         id="path226" />
      <path
         d="m 4088.7,3130.18 c 0,-42.87 -196.42,-77.62 -438.72,-77.62 -242.3,0 -438.73,34.75 -438.73,77.62 0,42.87 196.43,77.62 438.73,77.62 242.3,0 438.72,-34.75 438.72,-77.62"
         style="fill:#1d1c1c;fill-opacity:1;fill-rule:nonzero;stroke:none"
         id="path228" />
      <path
         d="m 4181.62,3440.88 c -16.03,-49.13 -75.79,-50.86 -117.24,-33.1 -13.83,5.93 -26.37,15.02 -36.98,26.12 -7.96,-28.64 -26.46,-52.98 -57.05,-59.44 -33.06,-6.98 -63.14,11.58 -83.56,38.45 -14.19,-33.02 -44.94,-57.54 -88.73,-58.99 -35.18,-1.16 -63.37,15.94 -83.43,43.43 -1.55,2.08 -3.1,4.43 -4.65,6.8 -14.18,-38.84 -43.09,-67.29 -90.23,-50.46 -22.32,8.01 -39.42,24.84 -49.18,45.57 -0.45,-0.63 -0.88,-1.28 -1.33,-1.91 -19.57,-27.49 -47.15,-44.59 -81.57,-43.43 -42.78,1.45 -72.79,25.97 -86.66,58.99 -19.94,-26.87 -49.37,-45.43 -81.66,-38.45 -29.88,6.46 -47.99,30.8 -55.78,59.44 -10.39,-11.1 -22.57,-20.19 -36.09,-26.12 -40.53,-17.76 -98.91,-16.03 -114.59,33.1 -7.25,22.71 -0.31,48.87 7.03,70.62 9.89,29.2 21.43,57.66 28.06,87.89 13.17,60.32 8,122.63 19.17,183.25 9.51,51.62 22.19,106.72 51.39,151.13 26.43,40.09 65.4,71.28 108.54,91.83 43.39,20.64 91.25,32.88 139.19,36.33 53.3,3.8 299.17,3.8 353.7,0 49.05,-3.45 98.06,-15.69 142.42,-36.33 44.19,-20.55 84.09,-51.74 111.11,-91.83 29.9,-44.41 42.86,-99.51 52.57,-151.13 11.49,-60.62 6.15,-122.93 19.67,-183.25 6.76,-30.23 18.56,-58.69 28.67,-87.89 7.52,-21.75 14.63,-47.91 7.21,-70.62"
         style="fill:#ea136e;fill-opacity:1;fill-rule:nonzero;stroke:none"
         id="path230" />
      <path
         d="m 4144.41,3462.21 c -2.01,-27.71 -31.42,-29.92 -53.98,-21.91 -39.22,13.94 -51.05,47.9 -69.71,80.74 -7.72,13.6 -30.6,11 -29.35,-9.89 1.29,-21.62 4.72,-100.69 -35.2,-93.12 -43.34,8.21 -51.06,51.77 -65.82,84.27 -8.5,18.7 -27.65,9.86 -30.22,-8.77 -0.01,-0.06 -0.01,-0.12 -0.01,-0.17 -5.14,-20.03 -2.91,-41.49 -11.89,-60.54 -10.09,-21.39 -33.79,-35.51 -58.19,-32.94 -24.85,2.62 -42.21,24.4 -51.66,45.6 -6.76,15.16 -6.42,27.69 -13.77,47.9 -6.64,23.98 -28.83,19.47 -32.04,0 -5.01,-30.43 -6.48,-94.4 -48.45,-99.08 -52.44,-5.88 -44.57,95.78 -44.64,96.33 -2.64,22.26 -28.43,25.21 -36.53,4.58 -30.94,-78.8 -43.15,-92.71 -67.42,-95.33 -23.85,-2.57 -47,11.55 -56.86,32.94 -8.77,19.05 -6.59,40.51 -11.62,60.54 0,0.05 0,0.11 0,0.17 -0.18,1.82 -0.72,3.55 -1.52,5.16 -1.78,12.73 -19.46,18.62 -28.01,3.61 -17.56,-30.81 -21.97,-76.06 -64.32,-84.27 -39.01,-7.57 -34.18,71.46 -34.39,93.12 -0.27,26.05 -21.14,23.49 -28.69,9.89 -18.24,-32.84 -29.79,-66.8 -68.13,-80.74 -22.03,-8.01 -50.78,-5.8 -52.73,21.91 -1.65,23.23 12.02,49.29 19.74,70.6 33.52,92.39 22.54,190.23 45.43,284.81 9.96,41.16 23.28,81.85 50.59,114.97 26.03,31.59 62.3,53.42 99.8,68.63 37.58,15.24 77.82,24.38 118.19,24.58 82.15,0.43 233.86,1.17 319.85,0 41.31,-0.56 82.49,-9.34 120.94,-24.58 38.38,-15.21 75.5,-37.04 102.14,-68.63 27.93,-33.12 41.58,-73.81 51.77,-114.97 23.42,-94.58 12.19,-192.42 46.49,-284.81 7.91,-21.31 21.89,-47.37 20.21,-70.6"
         style="fill:#f24bae;fill-opacity:1;fill-rule:nonzero;stroke:none"
         id="path232" />
      <path
         d="m 3721.44,3566.13 c -10.96,-16.21 -38.32,-13.16 -55.1,-8.04 -16.89,5.17 -29.84,4.73 -47.02,1.55 -9.99,-1.86 -19.32,-2.88 -29.39,-1.33 -15.96,2.43 -38.84,10.48 -39.73,29.66 -0.18,3.57 -1.81,17.98 17.63,38.08 37.61,28.86 74.34,29.69 106.46,18.56 30.22,-10.47 72.96,-40.34 47.15,-78.48"
         style="fill:#ea136e;fill-opacity:1;fill-rule:nonzero;stroke:none"
         id="path234" />
      <path
         d="m 3656.03,3589.96 c -11.39,2.29 -22.63,0.31 -33.83,-1.88 -13.26,-2.61 -34.05,-10.52 -41.43,3.03 -1.38,2.52 -3.54,13.77 11.28,26.72 11.99,8.05 30.01,13.79 45.47,13.99 30.58,0.37 73.54,-17.84 69.42,-44.73 -2.65,-17.29 -42.69,1.22 -50.91,2.87"
         style="fill:#941544;fill-opacity:1;fill-rule:nonzero;stroke:none"
         id="path236" />
      <path
         d="m 4066.21,3825.12 c -8.37,33.12 -23.29,62.85 -45.51,88.76 -20.88,24.36 -47.61,41.83 -76.71,54.92 -22.1,9.95 -53.46,24.88 -77.56,16.25 -15.61,-5.59 -19.87,-28.64 -6.03,-38.65 35.86,-25.93 77.55,-46.55 106.17,-80.93 17.85,-21.45 26.2,-47.58 33.57,-74.11 7.68,-27.72 10.82,-57.74 32.79,-78.17 12.37,-11.51 36.29,-5.67 42.01,10.2 11.51,31.97 -0.7,69.93 -8.73,101.73"
         style="fill:#ffffff;fill-opacity:1;fill-rule:nonzero;stroke:none"
         id="path238" />
      <path
         d="m 4099.49,3562.75 c -24.33,15.43 -20.55,-31.84 -17.6,-43.29 4.03,-15.61 9.87,-33.97 20.26,-46.53 10.75,-13.02 30.76,-5.2 30.13,11.57 -0.54,15.06 -17.41,68.5 -32.79,78.25"
         style="fill:#ffffff;fill-opacity:1;fill-rule:nonzero;stroke:none"
         id="path240" />
      <path
         d="m 3836.86,3499.17 c -4.81,11.92 -22.74,13.19 -27.92,0.73 -4.56,-10.94 -4.43,-23.03 -6.55,-34.57 -2.27,-12.31 -10.24,-23.23 -8.43,-36.07 1.29,-9.15 11.41,-17.4 20.79,-12.84 24.76,12.05 31.69,58.99 22.11,82.75"
         style="fill:#ffffff;fill-opacity:1;fill-rule:nonzero;stroke:none"
         id="path242" />
      <path
         d="m 3692.88,3728.36 c -52.7,-23.91 -121.03,-0.81 -142.63,50.94 -15.13,36.34 -11.88,86.6 33.97,118.86 83.59,45.5 139.57,-2.51 159.6,-27.16 40.27,-49.65 -0.14,-119.61 -50.94,-142.64 z m 97.33,150.1 c -31.86,63.71 -97.33,96.1 -176.38,80.28 -48.28,-11.34 -123,-50.4 -115.67,-162.53 5.84,-88.5 111.12,-145.82 194.11,-120.35 85.57,26.35 139.91,118.59 97.94,202.6"
         style="fill:#ea136e;fill-opacity:1;fill-rule:nonzero;stroke:none"
         id="path244" />
      <path
         d="m 3692.98,3729.2 c -52.71,-23.91 -121.03,-0.81 -142.63,50.94 -15.14,36.34 -11.87,86.59 33.96,118.86 83.6,45.49 139.57,-2.52 159.62,-27.17 40.27,-49.65 -0.14,-119.6 -50.95,-142.63"
         style="fill:#ffffff;fill-opacity:1;fill-rule:nonzero;stroke:none"
         id="path246" />
      <path
         d="m 3682.69,3884.57 c -37.54,22.07 -102.4,-7.64 -106.34,-56.2 -2.36,-29.09 17.49,-57.28 43.63,-65.13 26.27,-13.5 60.75,-7.81 82.87,15.35 14.67,15.34 40.31,70.45 -20.16,105.98"
         style="fill:#100f0d;fill-opacity:1;fill-rule:nonzero;stroke:none"
         id="path248" />
    </g>
  </g>
</svg>
